<?xml version="1.0" encoding="UTF-8" standalone="no"?>
<!-- Created with Inkscape (http://www.inkscape.org/) -->

<svg
   xmlns:dc="http://purl.org/dc/elements/1.1/"
   xmlns:cc="http://creativecommons.org/ns#"
   xmlns:rdf="http://www.w3.org/1999/02/22-rdf-syntax-ns#"
   xmlns:svg="http://www.w3.org/2000/svg"
   xmlns="http://www.w3.org/2000/svg"
   xmlns:sodipodi="http://sodipodi.sourceforge.net/DTD/sodipodi-0.dtd"
   xmlns:inkscape="http://www.inkscape.org/namespaces/inkscape"
   width="210mm"
   height="297mm"
   viewBox="0 0 210 297"
   version="1.1"
   id="svg8"
   inkscape:version="0.92.4 (5da689c313, 2019-01-14)"
   sodipodi:docname="wedding_template.svg">
  <defs
     id="defs2" />
  <sodipodi:namedview
     id="base"
     pagecolor="#ffffff"
     bordercolor="#666666"
     borderopacity="1.0"
     inkscape:pageopacity="0.0"
     inkscape:pageshadow="2"
     inkscape:zoom="0.84729663"
     inkscape:cx="342.10001"
     inkscape:cy="431.26268"
     inkscape:document-units="mm"
     inkscape:current-layer="layer1"
     showgrid="false"
     inkscape:window-width="1920"
     inkscape:window-height="1017"
     inkscape:window-x="-8"
     inkscape:window-y="-8"
     inkscape:window-maximized="1"
     showguides="true"
     inkscape:guide-bbox="true" />
  <metadata
     id="metadata5">
    <rdf:RDF>
      <cc:Work
         rdf:about="">
        <dc:format>image/svg+xml</dc:format>
        <dc:type
           rdf:resource="http://purl.org/dc/dcmitype/StillImage" />
        <dc:title />
      </cc:Work>
    </rdf:RDF>
  </metadata>
  <g
     inkscape:label="Ebene 1"
     inkscape:groupmode="layer"
     id="layer1">
    <rect
       style="fill:none;fill-opacity:1;stroke:#000000;stroke-width:1.08685124;stroke-miterlimit:4;stroke-dasharray:none;stroke-opacity:1"
       id="rect4485"
       width="198.91315"
       height="198.91315"
       x="5.5365081"
       y="90.613914" />
    <rect
       style="fill:none;fill-opacity:1;stroke:#000000;stroke-width:0.11769415;stroke-miterlimit:4;stroke-dasharray:none;stroke-opacity:1"
       id="rect4485-9-5"
       width="39.882305"
       height="39.882305"
       x="45.418812"
       y="90.613907" />
    <path
       style="fill:none;fill-rule:evenodd;stroke:#000000;stroke-width:0.26798862;stroke-linecap:butt;stroke-linejoin:miter;stroke-miterlimit:4;stroke-dasharray:0.80396591, 0.80396591;stroke-dashoffset:0;stroke-opacity:1"
       d="M 48.761562,122.92381 H 81.958363"
       id="path4604-6"
       inkscape:connector-curvature="0"
       sodipodi:nodetypes="cc" />
    <text
       xml:space="preserve"
       style="font-style:normal;font-variant:normal;font-weight:normal;font-stretch:normal;font-size:3.52777767px;line-height:125%;font-family:Calibri;-inkscape-font-specification:Calibri;letter-spacing:0px;word-spacing:0px;fill:#000000;fill-opacity:1;stroke:none;stroke-width:0.26458332px;stroke-linecap:butt;stroke-linejoin:miter;stroke-opacity:1"
       x="48.668476"
       y="127.7885"
       id="text4608-6"><tspan
         sodipodi:role="line"
         id="tspan4606-0"
         x="48.668476"
         y="127.7885"
         style="stroke-width:0.26458332px">Unterschrift des Gastes</tspan></text>
    <rect
       style="fill:none;fill-opacity:1;stroke:#000000;stroke-width:0.11769415;stroke-miterlimit:4;stroke-dasharray:none;stroke-opacity:1"
       id="rect4485-9-9"
       width="39.882305"
       height="39.882305"
       x="85.301117"
       y="90.613907" />
    <path
       style="fill:none;fill-rule:evenodd;stroke:#000000;stroke-width:0.26798862;stroke-linecap:butt;stroke-linejoin:miter;stroke-miterlimit:4;stroke-dasharray:0.80396591, 0.80396591;stroke-dashoffset:0;stroke-opacity:1"
       d="M 88.643873,122.92381 H 121.84067"
       id="path4604-0"
       inkscape:connector-curvature="0"
       sodipodi:nodetypes="cc" />
    <text
       xml:space="preserve"
       style="font-style:normal;font-variant:normal;font-weight:normal;font-stretch:normal;font-size:3.52777767px;line-height:125%;font-family:Calibri;-inkscape-font-specification:Calibri;letter-spacing:0px;word-spacing:0px;fill:#000000;fill-opacity:1;stroke:none;stroke-width:0.26458332px;stroke-linecap:butt;stroke-linejoin:miter;stroke-opacity:1"
       x="88.550781"
       y="127.78849"
       id="text4608-2"><tspan
         sodipodi:role="line"
         id="tspan4606-8"
         x="88.550781"
         y="127.78849"
         style="stroke-width:0.26458332px">Unterschrift des Gastes</tspan></text>
    <rect
       style="fill:none;fill-opacity:1;stroke:#000000;stroke-width:0.11769415;stroke-miterlimit:4;stroke-dasharray:none;stroke-opacity:1"
       id="rect4485-9-8"
       width="39.882305"
       height="39.882305"
       x="125.18343"
       y="90.613907" />
    <path
       style="fill:none;fill-rule:evenodd;stroke:#000000;stroke-width:0.26798862;stroke-linecap:butt;stroke-linejoin:miter;stroke-miterlimit:4;stroke-dasharray:0.80396591, 0.80396591;stroke-dashoffset:0;stroke-opacity:1"
       d="m 128.52617,122.92381 h 33.19681"
       id="path4604-02"
       inkscape:connector-curvature="0"
       sodipodi:nodetypes="cc" />
    <text
       xml:space="preserve"
       style="font-style:normal;font-variant:normal;font-weight:normal;font-stretch:normal;font-size:3.52777767px;line-height:125%;font-family:Calibri;-inkscape-font-specification:Calibri;letter-spacing:0px;word-spacing:0px;fill:#000000;fill-opacity:1;stroke:none;stroke-width:0.26458332px;stroke-linecap:butt;stroke-linejoin:miter;stroke-opacity:1"
       x="128.43309"
       y="127.78849"
       id="text4608-5"><tspan
         sodipodi:role="line"
         id="tspan4606-5"
         x="128.43309"
         y="127.78849"
         style="stroke-width:0.26458332px">Unterschrift des Gastes</tspan></text>
    <rect
       style="fill:none;fill-opacity:1;stroke:#000000;stroke-width:0.11769415;stroke-miterlimit:4;stroke-dasharray:none;stroke-opacity:1"
       id="rect4485-9-87"
       width="39.882305"
       height="39.882305"
       x="165.06573"
       y="90.613907" />
    <path
       style="fill:none;fill-rule:evenodd;stroke:#000000;stroke-width:0.26798862;stroke-linecap:butt;stroke-linejoin:miter;stroke-miterlimit:4;stroke-dasharray:0.80396591, 0.80396591;stroke-dashoffset:0;stroke-opacity:1"
       d="m 168.40849,122.92381 h 33.1968"
       id="path4604-1"
       inkscape:connector-curvature="0"
       sodipodi:nodetypes="cc" />
    <text
       xml:space="preserve"
       style="font-style:normal;font-variant:normal;font-weight:normal;font-stretch:normal;font-size:3.52777767px;line-height:125%;font-family:Calibri;-inkscape-font-specification:Calibri;letter-spacing:0px;word-spacing:0px;fill:#000000;fill-opacity:1;stroke:none;stroke-width:0.26458332px;stroke-linecap:butt;stroke-linejoin:miter;stroke-opacity:1"
       x="168.3154"
       y="127.78849"
       id="text4608-68"><tspan
         sodipodi:role="line"
         id="tspan4606-89"
         x="168.3154"
         y="127.78849"
         style="stroke-width:0.26458332px">Unterschrift des Gastes</tspan></text>
    <rect
       style="fill:none;fill-opacity:1;stroke:#000000;stroke-width:0.11769415;stroke-miterlimit:4;stroke-dasharray:none;stroke-opacity:1"
       id="rect4485-9-0"
       width="39.882305"
       height="39.882305"
       x="5.5365062"
       y="130.49622" />
    <path
       style="fill:none;fill-rule:evenodd;stroke:#000000;stroke-width:0.26798862;stroke-linecap:butt;stroke-linejoin:miter;stroke-miterlimit:4;stroke-dasharray:0.80396591, 0.80396591;stroke-dashoffset:0;stroke-opacity:1"
       d="M 8.8792581,162.80612 H 42.076059"
       id="path4604-00"
       inkscape:connector-curvature="0"
       sodipodi:nodetypes="cc" />
    <text
       xml:space="preserve"
       style="font-style:normal;font-variant:normal;font-weight:normal;font-stretch:normal;font-size:3.52777767px;line-height:125%;font-family:Calibri;-inkscape-font-specification:Calibri;letter-spacing:0px;word-spacing:0px;fill:#000000;fill-opacity:1;stroke:none;stroke-width:0.26458332px;stroke-linecap:butt;stroke-linejoin:miter;stroke-opacity:1"
       x="8.7861719"
       y="167.67081"
       id="text4608-20"><tspan
         sodipodi:role="line"
         id="tspan4606-1"
         x="8.7861719"
         y="167.67081"
         style="stroke-width:0.26458332px">Unterschrift des Gastes</tspan></text>
    <rect
       style="fill:none;fill-opacity:1;stroke:#000000;stroke-width:0.11769415;stroke-miterlimit:4;stroke-dasharray:none;stroke-opacity:1"
       id="rect4485-9-5-2"
       width="39.882305"
       height="39.882305"
       x="45.418812"
       y="130.49622" />
    <path
       style="fill:none;fill-rule:evenodd;stroke:#000000;stroke-width:0.26798862;stroke-linecap:butt;stroke-linejoin:miter;stroke-miterlimit:4;stroke-dasharray:0.80396592, 0.80396592;stroke-dashoffset:0;stroke-opacity:1"
       d="M 48.761561,162.80612 H 81.958357"
       id="path4604-6-4"
       inkscape:connector-curvature="0"
       sodipodi:nodetypes="cc" />
    <text
       xml:space="preserve"
       style="font-style:normal;font-variant:normal;font-weight:normal;font-stretch:normal;font-size:3.52777767px;line-height:125%;font-family:Calibri;-inkscape-font-specification:Calibri;letter-spacing:0px;word-spacing:0px;fill:#000000;fill-opacity:1;stroke:none;stroke-width:0.26458332px;stroke-linecap:butt;stroke-linejoin:miter;stroke-opacity:1"
       x="48.668476"
       y="167.67079"
       id="text4608-6-4"><tspan
         sodipodi:role="line"
         id="tspan4606-0-6"
         x="48.668476"
         y="167.67079"
         style="stroke-width:0.26458332px">Unterschrift des Gastes</tspan></text>
    <rect
       style="fill:none;fill-opacity:1;stroke:#000000;stroke-width:0.11769415;stroke-miterlimit:4;stroke-dasharray:none;stroke-opacity:1"
       id="rect4485-9-9-4"
       width="39.882305"
       height="39.882305"
       x="85.301117"
       y="130.4962" />
    <path
       style="fill:none;fill-rule:evenodd;stroke:#000000;stroke-width:0.26798862;stroke-linecap:butt;stroke-linejoin:miter;stroke-miterlimit:4;stroke-dasharray:0.80396592, 0.80396592;stroke-dashoffset:0;stroke-opacity:1"
       d="M 88.643867,162.80611 H 121.84066"
       id="path4604-0-1"
       inkscape:connector-curvature="0"
       sodipodi:nodetypes="cc" />
    <text
       xml:space="preserve"
       style="font-style:normal;font-variant:normal;font-weight:normal;font-stretch:normal;font-size:3.52777767px;line-height:125%;font-family:Calibri;-inkscape-font-specification:Calibri;letter-spacing:0px;word-spacing:0px;fill:#000000;fill-opacity:1;stroke:none;stroke-width:0.26458332px;stroke-linecap:butt;stroke-linejoin:miter;stroke-opacity:1"
       x="88.550781"
       y="167.67079"
       id="text4608-2-8"><tspan
         sodipodi:role="line"
         id="tspan4606-8-6"
         x="88.550781"
         y="167.67079"
         style="stroke-width:0.26458332px">Unterschrift des Gastes</tspan></text>
    <rect
       style="fill:none;fill-opacity:1;stroke:#000000;stroke-width:0.11769415;stroke-miterlimit:4;stroke-dasharray:none;stroke-opacity:1"
       id="rect4485-9-8-6"
       width="39.882305"
       height="39.882305"
       x="125.18343"
       y="130.4962" />
    <path
       style="fill:none;fill-rule:evenodd;stroke:#000000;stroke-width:0.26798862;stroke-linecap:butt;stroke-linejoin:miter;stroke-miterlimit:4;stroke-dasharray:0.80396592, 0.80396592;stroke-dashoffset:0;stroke-opacity:1"
       d="m 128.52616,162.80611 h 33.19681"
       id="path4604-02-7"
       inkscape:connector-curvature="0"
       sodipodi:nodetypes="cc" />
    <text
       xml:space="preserve"
       style="font-style:normal;font-variant:normal;font-weight:normal;font-stretch:normal;font-size:3.52777767px;line-height:125%;font-family:Calibri;-inkscape-font-specification:Calibri;letter-spacing:0px;word-spacing:0px;fill:#000000;fill-opacity:1;stroke:none;stroke-width:0.26458332px;stroke-linecap:butt;stroke-linejoin:miter;stroke-opacity:1"
       x="128.43309"
       y="167.67079"
       id="text4608-5-0"><tspan
         sodipodi:role="line"
         id="tspan4606-5-9"
         x="128.43309"
         y="167.67079"
         style="stroke-width:0.26458332px">Unterschrift des Gastes</tspan></text>
    <rect
       style="fill:none;fill-opacity:1;stroke:#000000;stroke-width:0.11769415;stroke-miterlimit:4;stroke-dasharray:none;stroke-opacity:1"
       id="rect4485-9-87-1"
       width="39.882305"
       height="39.882305"
       x="165.06572"
       y="130.49622" />
    <path
       style="fill:none;fill-rule:evenodd;stroke:#000000;stroke-width:0.26798862;stroke-linecap:butt;stroke-linejoin:miter;stroke-miterlimit:4;stroke-dasharray:0.80396592, 0.80396592;stroke-dashoffset:0;stroke-opacity:1"
       d="m 168.40848,162.80612 h 33.1968"
       id="path4604-1-8"
       inkscape:connector-curvature="0"
       sodipodi:nodetypes="cc" />
    <text
       xml:space="preserve"
       style="font-style:normal;font-variant:normal;font-weight:normal;font-stretch:normal;font-size:3.52777767px;line-height:125%;font-family:Calibri;-inkscape-font-specification:Calibri;letter-spacing:0px;word-spacing:0px;fill:#000000;fill-opacity:1;stroke:none;stroke-width:0.26458332px;stroke-linecap:butt;stroke-linejoin:miter;stroke-opacity:1"
       x="168.31541"
       y="167.67079"
       id="text4608-68-9"><tspan
         sodipodi:role="line"
         id="tspan4606-89-4"
         x="168.31541"
         y="167.67079"
         style="stroke-width:0.26458332px">Unterschrift des Gastes</tspan></text>
    <rect
       style="fill:none;fill-opacity:1;stroke:#000000;stroke-width:0.11769415;stroke-miterlimit:4;stroke-dasharray:none;stroke-opacity:1"
       id="rect4485-9-7"
       width="39.882305"
       height="39.882305"
       x="5.5365062"
       y="170.37851" />
    <path
       style="fill:none;fill-rule:evenodd;stroke:#000000;stroke-width:0.26798862;stroke-linecap:butt;stroke-linejoin:miter;stroke-miterlimit:4;stroke-dasharray:0.80396591, 0.80396591;stroke-dashoffset:0;stroke-opacity:1"
       d="M 8.879258,202.68842 H 42.076059"
       id="path4604-4"
       inkscape:connector-curvature="0"
       sodipodi:nodetypes="cc" />
    <text
       xml:space="preserve"
       style="font-style:normal;font-variant:normal;font-weight:normal;font-stretch:normal;font-size:3.52777767px;line-height:125%;font-family:Calibri;-inkscape-font-specification:Calibri;letter-spacing:0px;word-spacing:0px;fill:#000000;fill-opacity:1;stroke:none;stroke-width:0.26458332px;stroke-linecap:butt;stroke-linejoin:miter;stroke-opacity:1"
       x="8.7861719"
       y="207.5531"
       id="text4608-58"><tspan
         sodipodi:role="line"
         id="tspan4606-2"
         x="8.7861719"
         y="207.5531"
         style="stroke-width:0.26458332px">Unterschrift des Gastes</tspan></text>
    <rect
       style="fill:none;fill-opacity:1;stroke:#000000;stroke-width:0.11769415;stroke-miterlimit:4;stroke-dasharray:none;stroke-opacity:1"
       id="rect4485-9-5-5"
       width="39.882305"
       height="39.882305"
       x="45.418816"
       y="170.37851" />
    <path
       style="fill:none;fill-rule:evenodd;stroke:#000000;stroke-width:0.26798862;stroke-linecap:butt;stroke-linejoin:miter;stroke-miterlimit:4;stroke-dasharray:0.80396592, 0.80396592;stroke-dashoffset:0;stroke-opacity:1"
       d="m 48.761567,202.68842 h 33.1968"
       id="path4604-6-6"
       inkscape:connector-curvature="0"
       sodipodi:nodetypes="cc" />
    <text
       xml:space="preserve"
       style="font-style:normal;font-variant:normal;font-weight:normal;font-stretch:normal;font-size:3.52777767px;line-height:125%;font-family:Calibri;-inkscape-font-specification:Calibri;letter-spacing:0px;word-spacing:0px;fill:#000000;fill-opacity:1;stroke:none;stroke-width:0.26458332px;stroke-linecap:butt;stroke-linejoin:miter;stroke-opacity:1"
       x="48.66848"
       y="207.5531"
       id="text4608-6-1"><tspan
         sodipodi:role="line"
         id="tspan4606-0-9"
         x="48.66848"
         y="207.5531"
         style="stroke-width:0.26458332px">Unterschrift des Gastes</tspan></text>
    <rect
       style="fill:none;fill-opacity:1;stroke:#000000;stroke-width:0.11769415;stroke-miterlimit:4;stroke-dasharray:none;stroke-opacity:1"
       id="rect4485-9-9-2"
       width="39.882305"
       height="39.882305"
       x="85.301125"
       y="170.37851" />
    <path
       style="fill:none;fill-rule:evenodd;stroke:#000000;stroke-width:0.26798862;stroke-linecap:butt;stroke-linejoin:miter;stroke-miterlimit:4;stroke-dasharray:0.80396592, 0.80396592;stroke-dashoffset:0;stroke-opacity:1"
       d="M 88.643877,202.68842 H 121.84067"
       id="path4604-0-4"
       inkscape:connector-curvature="0"
       sodipodi:nodetypes="cc" />
    <text
       xml:space="preserve"
       style="font-style:normal;font-variant:normal;font-weight:normal;font-stretch:normal;font-size:3.52777767px;line-height:125%;font-family:Calibri;-inkscape-font-specification:Calibri;letter-spacing:0px;word-spacing:0px;fill:#000000;fill-opacity:1;stroke:none;stroke-width:0.26458332px;stroke-linecap:butt;stroke-linejoin:miter;stroke-opacity:1"
       x="88.550789"
       y="207.55309"
       id="text4608-2-5"><tspan
         sodipodi:role="line"
         id="tspan4606-8-9"
         x="88.550789"
         y="207.55309"
         style="stroke-width:0.26458332px">Unterschrift des Gastes</tspan></text>
    <rect
       style="fill:none;fill-opacity:1;stroke:#000000;stroke-width:0.11769415;stroke-miterlimit:4;stroke-dasharray:none;stroke-opacity:1"
       id="rect4485-9-8-9"
       width="39.882305"
       height="39.882305"
       x="125.18343"
       y="170.37851" />
    <path
       style="fill:none;fill-rule:evenodd;stroke:#000000;stroke-width:0.26798862;stroke-linecap:butt;stroke-linejoin:miter;stroke-miterlimit:4;stroke-dasharray:0.80396592, 0.80396592;stroke-dashoffset:0;stroke-opacity:1"
       d="m 128.52617,202.68842 h 33.19681"
       id="path4604-02-5"
       inkscape:connector-curvature="0"
       sodipodi:nodetypes="cc" />
    <text
       xml:space="preserve"
       style="font-style:normal;font-variant:normal;font-weight:normal;font-stretch:normal;font-size:3.52777767px;line-height:125%;font-family:Calibri;-inkscape-font-specification:Calibri;letter-spacing:0px;word-spacing:0px;fill:#000000;fill-opacity:1;stroke:none;stroke-width:0.26458332px;stroke-linecap:butt;stroke-linejoin:miter;stroke-opacity:1"
       x="128.43309"
       y="207.55309"
       id="text4608-5-5"><tspan
         sodipodi:role="line"
         id="tspan4606-5-3"
         x="128.43309"
         y="207.55309"
         style="stroke-width:0.26458332px">Unterschrift des Gastes</tspan></text>
    <rect
       style="fill:none;fill-opacity:1;stroke:#000000;stroke-width:0.11769415;stroke-miterlimit:4;stroke-dasharray:none;stroke-opacity:1"
       id="rect4485-9-87-0"
       width="39.882305"
       height="39.882305"
       x="165.06572"
       y="170.37851" />
    <path
       style="fill:none;fill-rule:evenodd;stroke:#000000;stroke-width:0.26798862;stroke-linecap:butt;stroke-linejoin:miter;stroke-miterlimit:4;stroke-dasharray:0.80396592, 0.80396592;stroke-dashoffset:0;stroke-opacity:1"
       d="m 168.40849,202.68842 h 33.1968"
       id="path4604-1-3"
       inkscape:connector-curvature="0"
       sodipodi:nodetypes="cc" />
    <text
       xml:space="preserve"
       style="font-style:normal;font-variant:normal;font-weight:normal;font-stretch:normal;font-size:3.52777767px;line-height:125%;font-family:Calibri;-inkscape-font-specification:Calibri;letter-spacing:0px;word-spacing:0px;fill:#000000;fill-opacity:1;stroke:none;stroke-width:0.26458332px;stroke-linecap:butt;stroke-linejoin:miter;stroke-opacity:1"
       x="168.3154"
       y="207.55309"
       id="text4608-68-1"><tspan
         sodipodi:role="line"
         id="tspan4606-89-3"
         x="168.3154"
         y="207.55309"
         style="stroke-width:0.26458332px">Unterschrift des Gastes</tspan></text>
    <rect
       style="fill:none;fill-opacity:1;stroke:#000000;stroke-width:0.11769415;stroke-miterlimit:4;stroke-dasharray:none;stroke-opacity:1"
       id="rect4485-9-54"
       width="39.882305"
       height="39.882305"
       x="5.5365062"
       y="210.26082" />
    <path
       style="fill:none;fill-rule:evenodd;stroke:#000000;stroke-width:0.26798862;stroke-linecap:butt;stroke-linejoin:miter;stroke-miterlimit:4;stroke-dasharray:0.80396591, 0.80396591;stroke-dashoffset:0;stroke-opacity:1"
       d="M 8.879258,242.57074 H 42.076059"
       id="path4604-5"
       inkscape:connector-curvature="0"
       sodipodi:nodetypes="cc" />
    <text
       xml:space="preserve"
       style="font-style:normal;font-variant:normal;font-weight:normal;font-stretch:normal;font-size:3.52777767px;line-height:125%;font-family:Calibri;-inkscape-font-specification:Calibri;letter-spacing:0px;word-spacing:0px;fill:#000000;fill-opacity:1;stroke:none;stroke-width:0.26458332px;stroke-linecap:butt;stroke-linejoin:miter;stroke-opacity:1"
       x="8.7861719"
       y="247.43541"
       id="text4608-54"><tspan
         sodipodi:role="line"
         id="tspan4606-4"
         x="8.7861719"
         y="247.43541"
         style="stroke-width:0.26458332px">Unterschrift des Gastes</tspan></text>
    <rect
       style="fill:none;fill-opacity:1;stroke:#000000;stroke-width:0.11769415;stroke-miterlimit:4;stroke-dasharray:none;stroke-opacity:1"
       id="rect4485-9-5-0"
       width="39.882305"
       height="39.882305"
       x="45.418823"
       y="210.26082" />
    <path
       style="fill:none;fill-rule:evenodd;stroke:#000000;stroke-width:0.26798862;stroke-linecap:butt;stroke-linejoin:miter;stroke-miterlimit:4;stroke-dasharray:0.80396592, 0.80396592;stroke-dashoffset:0;stroke-opacity:1"
       d="m 48.761576,242.57074 h 33.1968"
       id="path4604-6-48"
       inkscape:connector-curvature="0"
       sodipodi:nodetypes="cc" />
    <text
       xml:space="preserve"
       style="font-style:normal;font-variant:normal;font-weight:normal;font-stretch:normal;font-size:3.52777767px;line-height:125%;font-family:Calibri;-inkscape-font-specification:Calibri;letter-spacing:0px;word-spacing:0px;fill:#000000;fill-opacity:1;stroke:none;stroke-width:0.26458332px;stroke-linecap:butt;stroke-linejoin:miter;stroke-opacity:1"
       x="48.668491"
       y="247.43541"
       id="text4608-6-5"><tspan
         sodipodi:role="line"
         id="tspan4606-0-2"
         x="48.668491"
         y="247.43541"
         style="stroke-width:0.26458332px">Unterschrift des Gastes</tspan></text>
    <rect
       style="fill:none;fill-opacity:1;stroke:#000000;stroke-width:0.11769415;stroke-miterlimit:4;stroke-dasharray:none;stroke-opacity:1"
       id="rect4485-9-9-8"
       width="39.882305"
       height="39.882305"
       x="85.301132"
       y="210.26082" />
    <path
       style="fill:none;fill-rule:evenodd;stroke:#000000;stroke-width:0.26798862;stroke-linecap:butt;stroke-linejoin:miter;stroke-miterlimit:4;stroke-dasharray:0.80396592, 0.80396592;stroke-dashoffset:0;stroke-opacity:1"
       d="M 88.643886,242.57074 H 121.84068"
       id="path4604-0-3"
       inkscape:connector-curvature="0"
       sodipodi:nodetypes="cc" />
    <text
       xml:space="preserve"
       style="font-style:normal;font-variant:normal;font-weight:normal;font-stretch:normal;font-size:3.52777767px;line-height:125%;font-family:Calibri;-inkscape-font-specification:Calibri;letter-spacing:0px;word-spacing:0px;fill:#000000;fill-opacity:1;stroke:none;stroke-width:0.26458332px;stroke-linecap:butt;stroke-linejoin:miter;stroke-opacity:1"
       x="88.550797"
       y="247.43539"
       id="text4608-2-7"><tspan
         sodipodi:role="line"
         id="tspan4606-8-7"
         x="88.550797"
         y="247.43539"
         style="stroke-width:0.26458332px">Unterschrift des Gastes</tspan></text>
    <rect
       style="fill:none;fill-opacity:1;stroke:#000000;stroke-width:0.11769415;stroke-miterlimit:4;stroke-dasharray:none;stroke-opacity:1"
       id="rect4485-9-8-0"
       width="39.882305"
       height="39.882305"
       x="125.18344"
       y="210.26082" />
    <path
       style="fill:none;fill-rule:evenodd;stroke:#000000;stroke-width:0.26798862;stroke-linecap:butt;stroke-linejoin:miter;stroke-miterlimit:4;stroke-dasharray:0.80396592, 0.80396592;stroke-dashoffset:0;stroke-opacity:1"
       d="M 128.52618,242.57074 H 161.723"
       id="path4604-02-1"
       inkscape:connector-curvature="0"
       sodipodi:nodetypes="cc" />
    <text
       xml:space="preserve"
       style="font-style:normal;font-variant:normal;font-weight:normal;font-stretch:normal;font-size:3.52777767px;line-height:125%;font-family:Calibri;-inkscape-font-specification:Calibri;letter-spacing:0px;word-spacing:0px;fill:#000000;fill-opacity:1;stroke:none;stroke-width:0.26458332px;stroke-linecap:butt;stroke-linejoin:miter;stroke-opacity:1"
       x="128.43311"
       y="247.43541"
       id="text4608-5-1"><tspan
         sodipodi:role="line"
         id="tspan4606-5-8"
         x="128.43311"
         y="247.43541"
         style="stroke-width:0.26458332px">Unterschrift des Gastes</tspan></text>
    <rect
       style="fill:none;fill-opacity:1;stroke:#000000;stroke-width:0.11769415;stroke-miterlimit:4;stroke-dasharray:none;stroke-opacity:1"
       id="rect4485-9-87-8"
       width="39.882305"
       height="39.882305"
       x="165.06575"
       y="210.26082" />
    <path
       style="fill:none;fill-rule:evenodd;stroke:#000000;stroke-width:0.26798862;stroke-linecap:butt;stroke-linejoin:miter;stroke-miterlimit:4;stroke-dasharray:0.80396592, 0.80396592;stroke-dashoffset:0;stroke-opacity:1"
       d="m 168.40851,242.57074 h 33.1968"
       id="path4604-1-6"
       inkscape:connector-curvature="0"
       sodipodi:nodetypes="cc" />
    <text
       xml:space="preserve"
       style="font-style:normal;font-variant:normal;font-weight:normal;font-stretch:normal;font-size:3.52777767px;line-height:125%;font-family:Calibri;-inkscape-font-specification:Calibri;letter-spacing:0px;word-spacing:0px;fill:#000000;fill-opacity:1;stroke:none;stroke-width:0.26458332px;stroke-linecap:butt;stroke-linejoin:miter;stroke-opacity:1"
       x="168.31543"
       y="247.43541"
       id="text4608-68-5"><tspan
         sodipodi:role="line"
         id="tspan4606-89-32"
         x="168.31543"
         y="247.43541"
         style="stroke-width:0.26458332px">Unterschrift des Gastes</tspan></text>
    <rect
       style="fill:none;fill-opacity:1;stroke:#000000;stroke-width:0.11769415;stroke-miterlimit:4;stroke-dasharray:none;stroke-opacity:1"
       id="rect4485-9-05"
       width="39.882305"
       height="39.882305"
       x="5.5365062"
       y="250.14313" />
    <path
       style="fill:none;fill-rule:evenodd;stroke:#000000;stroke-width:0.26798862;stroke-linecap:butt;stroke-linejoin:miter;stroke-miterlimit:4;stroke-dasharray:0.80396591, 0.80396591;stroke-dashoffset:0;stroke-opacity:1"
       d="M 8.8792578,282.45303 H 42.07606"
       id="path4604-9"
       inkscape:connector-curvature="0"
       sodipodi:nodetypes="cc" />
    <text
       xml:space="preserve"
       style="font-style:normal;font-variant:normal;font-weight:normal;font-stretch:normal;font-size:3.52777767px;line-height:125%;font-family:Calibri;-inkscape-font-specification:Calibri;letter-spacing:0px;word-spacing:0px;fill:#000000;fill-opacity:1;stroke:none;stroke-width:0.26458332px;stroke-linecap:butt;stroke-linejoin:miter;stroke-opacity:1"
       x="8.7861719"
       y="287.31772"
       id="text4608-23"><tspan
         sodipodi:role="line"
         id="tspan4606-81"
         x="8.7861719"
         y="287.31772"
         style="stroke-width:0.26458332px">Unterschrift des Gastes</tspan></text>
    <rect
       style="fill:none;fill-opacity:1;stroke:#000000;stroke-width:0.11769415;stroke-miterlimit:4;stroke-dasharray:none;stroke-opacity:1"
       id="rect4485-9-5-7"
       width="39.882305"
       height="39.882305"
       x="45.418816"
       y="250.14313" />
    <path
       style="fill:none;fill-rule:evenodd;stroke:#000000;stroke-width:0.26798862;stroke-linecap:butt;stroke-linejoin:miter;stroke-miterlimit:4;stroke-dasharray:0.80396592, 0.80396592;stroke-dashoffset:0;stroke-opacity:1"
       d="m 48.761568,282.45303 h 33.1968"
       id="path4604-6-9"
       inkscape:connector-curvature="0"
       sodipodi:nodetypes="cc" />
    <text
       xml:space="preserve"
       style="font-style:normal;font-variant:normal;font-weight:normal;font-stretch:normal;font-size:3.52777767px;line-height:125%;font-family:Calibri;-inkscape-font-specification:Calibri;letter-spacing:0px;word-spacing:0px;fill:#000000;fill-opacity:1;stroke:none;stroke-width:0.26458332px;stroke-linecap:butt;stroke-linejoin:miter;stroke-opacity:1"
       x="48.66848"
       y="287.31772"
       id="text4608-6-0"><tspan
         sodipodi:role="line"
         id="tspan4606-0-4"
         x="48.66848"
         y="287.31772"
         style="stroke-width:0.26458332px">Unterschrift des Gastes</tspan></text>
    <rect
       style="fill:none;fill-opacity:1;stroke:#000000;stroke-width:0.11769415;stroke-miterlimit:4;stroke-dasharray:none;stroke-opacity:1"
       id="rect4485-9-9-6"
       width="39.882305"
       height="39.882305"
       x="85.301125"
       y="250.14313" />
    <path
       style="fill:none;fill-rule:evenodd;stroke:#000000;stroke-width:0.26798862;stroke-linecap:butt;stroke-linejoin:miter;stroke-miterlimit:4;stroke-dasharray:0.80396592, 0.80396592;stroke-dashoffset:0;stroke-opacity:1"
       d="M 88.643878,282.45302 H 121.84067"
       id="path4604-0-12"
       inkscape:connector-curvature="0"
       sodipodi:nodetypes="cc" />
    <text
       xml:space="preserve"
       style="font-style:normal;font-variant:normal;font-weight:normal;font-stretch:normal;font-size:3.52777767px;line-height:125%;font-family:Calibri;-inkscape-font-specification:Calibri;letter-spacing:0px;word-spacing:0px;fill:#000000;fill-opacity:1;stroke:none;stroke-width:0.26458332px;stroke-linecap:butt;stroke-linejoin:miter;stroke-opacity:1"
       x="88.550789"
       y="287.31772"
       id="text4608-2-9"><tspan
         sodipodi:role="line"
         id="tspan4606-8-4"
         x="88.550789"
         y="287.31772"
         style="stroke-width:0.26458332px">Unterschrift des Gastes</tspan></text>
    <rect
       style="fill:none;fill-opacity:1;stroke:#000000;stroke-width:0.11769415;stroke-miterlimit:4;stroke-dasharray:none;stroke-opacity:1"
       id="rect4485-9-8-09"
       width="39.882305"
       height="39.882305"
       x="125.18344"
       y="250.14313" />
    <path
       style="fill:none;fill-rule:evenodd;stroke:#000000;stroke-width:0.26798862;stroke-linecap:butt;stroke-linejoin:miter;stroke-miterlimit:4;stroke-dasharray:0.80396592, 0.80396592;stroke-dashoffset:0;stroke-opacity:1"
       d="m 128.52617,282.45302 h 33.19681"
       id="path4604-02-17"
       inkscape:connector-curvature="0"
       sodipodi:nodetypes="cc" />
    <text
       xml:space="preserve"
       style="font-style:normal;font-variant:normal;font-weight:normal;font-stretch:normal;font-size:3.52777767px;line-height:125%;font-family:Calibri;-inkscape-font-specification:Calibri;letter-spacing:0px;word-spacing:0px;fill:#000000;fill-opacity:1;stroke:none;stroke-width:0.26458332px;stroke-linecap:butt;stroke-linejoin:miter;stroke-opacity:1"
       x="128.43309"
       y="287.31772"
       id="text4608-5-7"><tspan
         sodipodi:role="line"
         id="tspan4606-5-4"
         x="128.43309"
         y="287.31772"
         style="stroke-width:0.26458332px">Unterschrift des Gastes</tspan></text>
    <rect
       style="fill:none;fill-opacity:1;stroke:#000000;stroke-width:0.11769415;stroke-miterlimit:4;stroke-dasharray:none;stroke-opacity:1"
       id="rect4485-9-87-86"
       width="39.882305"
       height="39.882305"
       x="165.06573"
       y="250.14313" />
    <path
       style="fill:none;fill-rule:evenodd;stroke:#000000;stroke-width:0.26798862;stroke-linecap:butt;stroke-linejoin:miter;stroke-miterlimit:4;stroke-dasharray:0.80396592, 0.80396592;stroke-dashoffset:0;stroke-opacity:1"
       d="m 168.40849,282.45303 h 33.1968"
       id="path4604-1-87"
       inkscape:connector-curvature="0"
       sodipodi:nodetypes="cc" />
    <text
       xml:space="preserve"
       style="font-style:normal;font-variant:normal;font-weight:normal;font-stretch:normal;font-size:3.52777767px;line-height:125%;font-family:Calibri;-inkscape-font-specification:Calibri;letter-spacing:0px;word-spacing:0px;fill:#000000;fill-opacity:1;stroke:none;stroke-width:0.26458332px;stroke-linecap:butt;stroke-linejoin:miter;stroke-opacity:1"
       x="168.31541"
       y="287.31772"
       id="text4608-68-7"><tspan
         sodipodi:role="line"
         id="tspan4606-89-49"
         x="168.31541"
         y="287.31772"
         style="stroke-width:0.26458332px">Unterschrift des Gastes</tspan></text>
    <rect
       style="fill:none;fill-opacity:1;stroke:#000000;stroke-width:0.45637879;stroke-miterlimit:4;stroke-dasharray:1.3691364, 1.3691364;stroke-dashoffset:0;stroke-opacity:1"
       id="rect5542"
       width="209.54361"
       height="296.54361"
       x="0.22818939"
       y="0.22820099" />
    <text
       xml:space="preserve"
       style="font-style:normal;font-variant:normal;font-weight:normal;font-stretch:normal;font-size:19.75555611px;line-height:125%;font-family:'Vladimir Script';-inkscape-font-specification:'Vladimir Script';letter-spacing:0px;word-spacing:0px;fill:#000000;fill-opacity:1;stroke:none;stroke-width:0.26458332px;stroke-linecap:butt;stroke-linejoin:miter;stroke-opacity:1"
       x="14.979338"
       y="32.153954"
       id="text5546-2"><tspan
         sodipodi:role="line"
         id="tspan5544-4"
         x="14.979338"
         y="32.153954"
         style="font-style:normal;font-variant:normal;font-weight:normal;font-stretch:normal;font-family:Blacksword;-inkscape-font-specification:Blacksword;stroke-width:0.26458332px">Hochzeitsbingo</tspan></text>
    <text
       xml:space="preserve"
       style="font-style:normal;font-variant:normal;font-weight:normal;font-stretch:normal;font-size:5.64444447px;line-height:125%;font-family:Calibri;-inkscape-font-specification:Calibri;letter-spacing:0px;word-spacing:0px;fill:#000000;fill-opacity:1;stroke:none;stroke-width:0.26458332px;stroke-linecap:butt;stroke-linejoin:miter;stroke-opacity:1"
       x="16.283319"
       y="48.260777"
       id="text4591"><tspan
         sodipodi:role="line"
         id="tspan4589"
         x="16.283319"
         y="48.260777"
         style="font-style:normal;font-variant:normal;font-weight:normal;font-stretch:normal;font-family:Blacksword;-inkscape-font-specification:Blacksword;stroke-width:0.26458332px">Finde einen Hochzeitsgast, auf den die Beschreibung passt </tspan><tspan
         sodipodi:role="line"
         x="16.283319"
         y="55.527042"
         style="font-style:normal;font-variant:normal;font-weight:normal;font-stretch:normal;font-family:Blacksword;-inkscape-font-specification:Blacksword;stroke-width:0.26458332px"
         id="tspan4776">und lasse ihn seinen Namen auf die Linie schreiben.</tspan><tspan
         sodipodi:role="line"
         x="16.283319"
         y="62.793304"
         style="font-style:normal;font-variant:normal;font-weight:normal;font-stretch:normal;font-family:Blacksword;-inkscape-font-specification:Blacksword;stroke-width:0.26458332px"
         id="tspan6139">Jede Box muss von einer anderen Person ausgefüllt werden.</tspan><tspan
         sodipodi:role="line"
         x="16.283319"
         y="70.05957"
         style="font-style:normal;font-variant:normal;font-weight:normal;font-stretch:normal;font-family:Blacksword;-inkscape-font-specification:Blacksword;stroke-width:0.26458332px"
         id="tspan4593">Versuche eine horizontale, vertikale oder diagonale Reihe zu füllen.</tspan><tspan
         sodipodi:role="line"
         x="16.283319"
         y="77.325836"
         style="font-style:normal;font-variant:normal;font-weight:normal;font-stretch:normal;font-family:Blacksword;-inkscape-font-specification:Blacksword;stroke-width:0.26458332px"
         id="tspan7234">Unter allen abgegebenen Karten werden kleine Gewinne verlost. </tspan></text>
    <path
       style="fill:#000000;stroke-width:0.06188895"
       d="m 176.1155,82.352697 c -4.3696,-0.112734 -8.11143,-0.463605 -8.89653,-0.834222 -0.24201,-0.114235 -0.26303,-0.143107 -0.26303,-0.36105 0,-0.131546 -0.0336,-0.248079 -0.0756,-0.262076 -0.0481,-0.01602 -0.0145,-0.08632 0.0928,-0.193638 0.0926,-0.09264 0.16864,-0.188055 0.16889,-0.212039 0.002,-0.154916 1.80574,-0.470104 3.58911,-0.627007 0.96362,-0.08477 4.88652,-0.261068 4.94909,-0.222401 0.0643,0.03982 0.51058,-1.497086 0.73632,-2.536197 0.94659,-4.357285 1.25778,-9.099128 0.84072,-12.811011 -0.17221,-1.532759 -0.60471,-3.60443 -1.0096,-4.835956 -0.49929,-1.518681 -1.57561,-3.10447 -2.66247,-3.922718 -1.35189,-1.01779 -3.2061,-1.377228 -4.97431,-0.964276 -0.46539,0.108689 -0.92193,0.320593 -1.20639,0.559956 -0.10338,0.08698 -0.2145,0.15815 -0.24697,0.15815 -0.10029,0 -0.73305,0.700298 -0.97618,1.080367 -0.1269,0.198389 -0.31419,0.586502 -0.41618,0.862475 -0.16412,0.444121 -0.18605,0.583543 -0.19083,1.213492 -0.005,0.625024 0.0155,0.772037 0.16566,1.206834 0.2277,0.659048 0.58806,1.244361 1.0181,1.653617 0.43564,0.41459 0.76682,0.610096 1.40465,0.829231 0.40901,0.140519 0.60273,0.170345 1.114,0.17152 1.08364,0.0026 1.95282,-0.32411 2.60236,-0.977895 0.44645,-0.449348 0.62357,-0.803417 0.71735,-1.434023 0.13302,-0.894328 -0.10233,-1.668283 -0.66779,-2.196041 -0.50825,-0.474375 -0.80367,-0.582037 -1.59981,-0.583018 -0.59654,-8.91e-4 -0.71853,0.01774 -0.98584,0.149301 -0.41248,0.203007 -0.78551,0.59648 -0.91756,0.967854 -0.11955,0.336242 -0.14179,0.931057 -0.0471,1.261044 0.088,0.306729 0.031,0.304212 -0.13064,-0.0058 -0.11072,-0.212262 -0.1409,-0.373502 -0.14302,-0.764141 -0.002,-0.428618 0.0219,-0.543818 0.18035,-0.857797 0.3987,-0.790047 1.31091,-1.2196 2.39753,-1.128988 0.72626,0.06056 1.1201,0.236611 1.59981,0.715118 0.47229,0.471094 0.64533,0.796749 0.78672,1.480552 0.32488,1.571131 -0.61681,3.067451 -2.28114,3.624678 -0.62782,0.2102 -1.77838,0.286721 -2.42273,0.16113 -1.57617,-0.307213 -2.86395,-1.516061 -3.30619,-3.103515 -0.0792,-0.284137 -0.11092,-0.623439 -0.1124,-1.200624 -0.002,-0.866905 0.10768,-1.373017 0.44093,-2.030664 0.13555,-0.267501 0.14004,-0.297124 0.0405,-0.26689 -0.60924,0.184886 -1.5756,0.21596 -2.15688,0.06935 -0.20287,-0.05116 -0.54989,-0.184288 -0.77114,-0.295825 l -0.40228,-0.202794 0.1465,0.435074 c 0.28742,0.853618 0.0672,1.757846 -0.61841,2.538664 -0.39428,0.449061 -1.44511,1.083697 -1.7944,1.083697 -0.0702,0 0.15318,-0.140574 0.49638,-0.312379 0.7782,-0.389588 1.34766,-0.924854 1.63981,-1.541389 0.1771,-0.373717 0.19195,-0.45564 0.19118,-1.055011 -8.4e-4,-0.553228 -0.0231,-0.699447 -0.15065,-0.983554 l -0.14983,-0.333716 -0.076,0.372426 c -0.23523,1.153185 -1.00961,1.831169 -1.97743,1.731283 -0.51857,-0.05353 -1.07278,-0.415257 -1.29521,-0.845382 -0.44627,-0.862972 0.22889,-2.100186 1.14915,-2.105814 0.29474,-0.0017 0.73415,0.236546 0.90713,0.492044 0.26233,0.387482 0.16257,0.983372 -0.2112,1.261498 -0.38689,0.287895 -1.02238,0.106214 -1.0581,-0.302507 l -0.016,-0.183668 0.0876,0.19442 c 0.0984,0.218269 0.43701,0.369008 0.68768,0.306092 0.25024,-0.06281 0.48383,-0.431955 0.47892,-0.75685 -0.007,-0.457562 -0.38029,-0.76483 -0.92937,-0.76483 -0.25444,0 -0.34044,0.03345 -0.55206,0.214568 -0.13787,0.11801 -0.29606,0.31021 -0.35153,0.427104 -0.11487,0.242072 -0.13255,0.751718 -0.0351,1.009826 0.16102,0.426183 0.78565,0.822849 1.29574,0.822849 0.33327,0 0.82833,-0.218906 1.06427,-0.470602 0.50912,-0.543126 0.59947,-1.421068 0.23488,-2.282244 -0.19436,-0.459087 -0.20985,-0.544656 -0.21285,-1.175894 -0.003,-0.659448 0.004,-0.695321 0.22167,-1.144943 0.49819,-1.028141 1.42492,-1.553946 2.58428,-1.466268 0.35704,0.027 0.56167,0.08416 0.89975,0.251309 0.49697,0.245702 0.69881,0.434658 0.92754,0.868315 l 0.15991,0.30319 v -0.277816 c 0,-0.347451 -0.19164,-1.108321 -0.38022,-1.509593 -0.0786,-0.167368 -0.3386,-0.502312 -0.57765,-0.744316 -0.48581,-0.491815 -1.06954,-0.815658 -1.76618,-0.979849 -0.52244,-0.123132 -1.80592,-0.124487 -2.38177,-0.0026 -0.52348,0.110879 -0.53924,0.110756 -0.33055,-0.0026 0.30426,-0.165252 1.27242,-0.294336 1.89027,-0.252018 0.85034,0.05823 1.16842,0.135803 1.78207,0.434569 1.0096,0.491539 1.65049,1.314792 1.85179,2.378719 0.29895,1.579953 -0.16502,2.769557 -1.2194,3.126584 -0.3689,0.124915 -0.5546,0.125836 -0.96223,0.0048 -0.37235,-0.110578 -0.73515,-0.403601 -0.85507,-0.690636 -0.17617,-0.421623 -0.0656,-1.032488 0.23238,-1.283174 0.29654,-0.249513 0.4016,-0.188927 0.12727,0.07338 -0.28553,0.273025 -0.3743,0.616769 -0.25536,0.988941 0.10846,0.339387 0.33213,0.545189 0.72781,0.669647 0.75378,0.237085 1.53557,-0.16846 1.74719,-0.906334 0.19636,-0.684672 -0.0331,-1.387842 -0.56997,-1.746402 -0.45267,-0.302339 -0.7321,-0.383001 -1.31757,-0.380332 -0.47857,0.0021 -0.60874,0.02674 -0.90697,0.171065 -0.43029,0.208249 -0.87622,0.674963 -1.09259,1.143505 -0.13973,0.302581 -0.16366,0.439114 -0.1651,0.941831 -0.002,0.54024 0.0146,0.62058 0.19844,0.990221 0.49214,0.989335 1.2765,1.434515 2.52146,1.431107 0.90266,-0.0026 1.46502,-0.215417 2.23398,-0.845913 1.23308,-1.011054 2.59324,-1.451948 4.23198,-1.371786 1.43214,0.07006 2.62148,0.469022 3.85664,1.293695 0.53968,0.360329 0.54328,0.361645 0.43923,0.160184 -0.0957,-0.185303 -0.45134,-0.734585 -0.83317,-1.286815 -1.5205,-2.199053 -5.42809,-6.116753 -7.98015,-8.000786 -0.2207,-0.162939 -0.63802,-0.472219 -0.92734,-0.687287 -1.55408,-1.155194 -2.96077,-1.824798 -4.44985,-2.118196 -0.63017,-0.124164 -0.93924,-0.14992 -1.72782,-0.143977 l -0.96037,0.0072 0.33532,0.183171 c 0.58614,0.32018 1.02603,0.842688 1.19704,1.421855 l 0.0737,0.249699 0.24952,-0.267403 c 0.30839,-0.330486 0.53443,-0.462521 0.94118,-0.549754 0.61784,-0.132499 1.32616,0.236208 1.62005,0.843294 0.29533,0.610064 -0.004,1.407356 -0.64843,1.730363 -0.37311,0.186851 -0.59444,0.192768 -0.94072,0.02513 -0.84026,-0.406764 -0.62052,-1.666613 0.29069,-1.666613 0.32064,0 0.7639,0.520036 0.55388,0.649833 -0.034,0.02105 -0.0619,-0.02038 -0.0619,-0.09199 0,-0.07163 -0.0684,-0.198604 -0.15191,-0.282154 -0.25622,-0.256219 -0.64035,-0.178064 -0.88586,0.180239 -0.15944,0.232693 -0.17361,0.409922 -0.0516,0.645823 0.38151,0.73775 1.42443,0.571099 1.72348,-0.275405 0.39896,-1.129263 -1.00609,-2.031424 -1.97807,-1.270096 -0.31756,0.248736 -0.57317,0.665717 -0.6844,1.116475 -0.37042,1.501018 -1.94306,2.175079 -3.20827,1.37511 -0.79571,-0.503115 -1.03976,-1.339664 -0.60644,-2.078777 0.46087,-0.786129 1.42707,-0.938656 2.07588,-0.327701 0.23206,0.218529 0.30146,0.375086 0.30121,0.679494 -3.8e-4,0.428788 -0.30529,0.849184 -0.61866,0.852976 -0.14266,0.0017 -0.13824,-0.0066 0.0567,-0.106338 0.23423,-0.119915 0.43847,-0.449298 0.43847,-0.707122 0,-0.457807 -0.48936,-0.855476 -1.05272,-0.855476 -0.67372,0 -1.11339,0.49657 -1.11339,1.257447 0,0.275732 0.0338,0.379986 0.19647,0.605408 0.24333,0.337247 0.31368,0.395914 0.70092,0.58454 0.6599,0.32144 1.56389,0.137119 2.03674,-0.415292 0.88748,-1.036829 0.54148,-2.509227 -0.72367,-3.079523 -1.24668,-0.561973 -2.76458,-0.08741 -3.96569,1.239853 -0.91291,1.008797 -1.24702,1.997147 -1.24256,3.675624 0.003,0.957182 0.009,1.009588 0.20604,1.570598 0.21821,0.62258 0.58206,1.275983 0.89167,1.60121 0.10531,0.110629 0.16029,0.201139 0.12219,0.201139 -0.23772,0 -0.95473,-0.956474 -1.19218,-1.59032 -0.46831,-1.250117 -0.5172,-2.511618 -0.14331,-3.69754 0.3817,-1.210657 1.0602,-2.15401 2.03032,-2.822856 l 0.30945,-0.213346 -0.80457,-0.04185 c -1.29945,-0.06759 -2.23134,-0.332474 -2.99564,-0.851506 -0.19924,-0.135302 -0.3819,-0.226382 -0.40588,-0.202387 -0.024,0.02398 -0.0352,0.01575 -0.0251,-0.01825 0.0102,-0.03404 -0.10823,-0.187216 -0.26314,-0.340392 -0.38075,-0.376483 -0.62749,-0.756244 -0.80423,-1.237779 -0.12507,-0.340724 -0.14766,-0.515916 -0.14766,-1.144947 0,-0.622901 0.024,-0.812527 0.14879,-1.175888 0.2237,-0.651306 0.44595,-0.966661 0.94865,-1.346084 0.17409,-0.131399 0.26345,-0.232084 0.20597,-0.232084 -0.35603,0 -1.02299,-0.619742 -1.30226,-1.210077 -0.27194,-0.574818 -0.30943,-1.434456 -0.0922,-2.113681 0.1473,-0.460561 0.51288,-1.073816 0.87708,-1.471265 0.20343,-0.222006 0.40105,-0.403648 0.43916,-0.403648 0.0381,0 -0.0427,0.118362 -0.17952,0.263029 -0.95136,1.00572 -1.35323,2.299335 -1.03471,3.330769 l 0.10381,0.33615 0.0444,-0.284505 c 0.11058,-0.708042 0.60966,-1.169885 1.26424,-1.169885 0.35203,0 0.62921,0.115545 0.85593,0.356805 0.52655,0.560293 0.0338,1.531197 -0.71317,1.40501 -0.26939,-0.04552 -0.54505,-0.2644 -0.54505,-0.432797 0,-0.0682 0.0664,-0.0297 0.20845,0.120966 0.23016,0.244027 0.42614,0.280091 0.71377,0.131347 0.24279,-0.125548 0.37746,-0.358139 0.37746,-0.651913 0,-0.205985 -0.0393,-0.288954 -0.21962,-0.464105 -0.50556,-0.49096 -1.28486,-0.312375 -1.63318,0.374255 -0.24126,0.475572 -0.11018,1.004094 0.3413,1.376246 0.34872,0.287447 0.67263,0.352336 1.37766,0.275997 1.03159,-0.111698 1.66674,0.07797 2.24329,0.66989 0.48788,0.500891 0.67713,1.263816 0.4782,1.927788 -0.104,0.347099 -0.54819,0.819071 -0.8958,0.951827 -0.3319,0.126758 -0.93959,0.141489 -1.27101,0.03081 -0.27279,-0.09109 -0.56475,-0.40468 -0.66798,-0.717466 -0.10901,-0.330324 -0.0294,-0.640079 0.22647,-0.881416 0.26542,-0.250325 0.41106,-0.201344 0.16499,0.05549 -0.22129,0.23098 -0.24259,0.630397 -0.0479,0.89747 0.17214,0.236092 0.61599,0.453542 0.92236,0.451873 0.26319,-0.0013 0.72502,-0.180955 0.92069,-0.357905 0.39678,-0.358808 0.49554,-1.164905 0.21067,-1.719585 -0.18835,-0.366759 -0.51181,-0.670567 -0.90925,-0.854023 -0.21984,-0.101476 -0.40387,-0.130071 -0.83864,-0.130316 -0.50488,-3.37e-4 -0.59917,0.01944 -1.00755,0.210838 -0.47536,0.222792 -0.79088,0.513786 -0.99268,0.915533 -0.52639,1.04797 -0.45927,2.210799 0.18313,3.172795 0.23871,0.357473 0.72646,0.778091 1.2567,1.083725 0.71819,0.413974 2.16343,0.646107 3.27462,0.525967 0.74249,-0.08027 1.7161,-0.22931 2.02028,-0.309255 0.52316,-0.137492 1.9697,-0.259446 2.69217,-0.226962 0.64387,0.02895 1.51677,0.152127 1.91855,0.270731 0.14182,0.04185 -0.79302,-0.881715 -1.79478,-1.773177 -4.2441,-3.776773 -5.90987,-8.287837 -4.85595,-13.150332 0.14265,-0.65814 0.46249,-1.634495 0.56882,-1.736397 0.0445,-0.04265 0.0516,-0.01379 0.023,0.09283 -0.49546,1.844602 -0.55685,2.278608 -0.56026,3.960892 -0.003,1.519318 0.0295,1.831477 0.31416,3.014395 0.54664,2.271081 1.75419,4.48688 3.43845,6.309393 0.52478,0.567867 0.69643,0.714754 0.76396,0.653777 0.027,-0.0244 0.0307,-0.01209 0.008,0.02733 -0.0398,0.06957 0.58791,0.691101 0.98048,0.970829 0.16236,0.115693 0.14946,0.08576 -0.10277,-0.238514 -0.61338,-0.788567 -1.64025,-2.592036 -2.10068,-3.689365 -0.51564,-1.228934 -0.91253,-2.634295 -1.15355,-4.084662 -0.15498,-0.932583 -0.16837,-1.149849 -0.16738,-2.71563 8.4e-4,-1.482201 0.0193,-1.809821 0.14206,-2.537447 0.1699,-1.006837 0.50788,-2.323927 0.76094,-2.965331 0.37615,-0.953413 1.10332,-2.207619 1.74317,-3.006579 2.46136,-3.073447 6.30153,-4.765717 10.40911,-4.587034 4.00955,0.174419 6.72459,1.490197 8.04981,3.90116 0.12269,0.223201 1.29043,3.357993 1.27779,3.395913 -0.0126,0.03792 -1.32755,-2.698474 -1.50679,-2.939515 -0.79298,-1.066397 -1.86436,-2.31653 -3.12882,-2.856623 -2.2994,-0.982148 -5.42835,-1.244568 -7.88874,-0.661617 -1.45173,0.343964 -3.14084,1.109544 -4.26087,1.931217 -0.89314,0.655223 -1.24213,0.973348 -1.8226,1.661403 -1.25004,1.481723 -2.05631,3.191881 -2.50873,5.321175 -0.23008,1.082868 -0.30995,1.976852 -0.30976,3.467055 2.4e-4,1.93333 0.28372,3.329952 1.14299,5.631062 0.4511,1.208042 1.78163,3.517317 2.44307,4.240225 0.0934,0.102118 0.2089,0.243954 0.25659,0.315188 0.42692,0.637657 1.71471,1.949481 2.62416,2.673122 0.40847,0.325009 0.86799,0.690971 1.02117,0.813247 0.15318,0.122272 0.32562,0.258949 0.38321,0.303725 0.0576,0.04478 -0.0721,-0.275745 -0.2882,-0.712267 -0.78018,-1.575938 -1.13814,-3.023233 -1.19282,-4.822703 -0.0742,-2.443983 0.6178,-4.345966 2.14992,-5.908578 0.28934,-0.295088 0.58261,-0.574948 0.65172,-0.621911 0.16043,-0.109011 0.48214,-0.598899 0.70633,-1.07561 0.61639,-1.310608 0.38929,-2.746952 -0.58792,-3.718407 -0.44902,-0.446383 -0.7749,-0.616484 -1.44746,-0.755554 -0.46617,-0.09639 -0.53134,-0.09631 -1.00322,0.0013 -1.01905,0.210716 -1.73066,0.750651 -2.06117,1.56392 -0.23141,0.569396 -0.24918,1.274398 -0.0429,1.70453 0.3871,0.807436 1.38343,1.279977 2.21053,1.048406 1.18879,-0.332841 1.59775,-1.881148 0.66321,-2.510929 -0.38338,-0.258363 -1.03591,-0.239977 -1.28587,0.03623 -0.14721,0.162662 -0.23929,0.159448 -0.14002,-0.0049 0.11132,-0.184261 0.49691,-0.366188 0.77613,-0.366188 0.93758,0 1.51654,0.774478 1.30923,1.751362 -0.0742,0.349858 -0.34394,0.801391 -0.61016,1.021556 -0.30379,0.251234 -0.72049,0.382215 -1.21788,0.382814 -0.56707,6.79e-4 -0.80702,-0.06456 -1.18663,-0.322662 -0.67765,-0.460749 -1.02115,-1.075449 -1.02325,-1.831144 -9.2e-4,-0.523081 0.19452,-1.177844 0.47807,-1.59728 0.87539,-1.294922 2.84096,-1.704958 4.27996,-0.892841 l 0.32247,0.181991 -0.0986,-0.352593 c -0.1421,-0.508282 -0.13298,-1.54063 0.0182,-2.054539 0.3167,-1.07684 1.25663,-2.041355 2.40081,-2.463602 0.36304,-0.133975 0.55417,-0.165162 1.01636,-0.165841 0.40282,-6.38e-4 0.59279,0.02398 0.64983,0.08406 0.0679,0.07152 0.034,0.08 -0.21523,0.05381 -0.44055,-0.0463 -1.13882,0.09781 -1.65775,0.342131 -0.53487,0.251826 -0.70214,0.374928 -1.18924,0.875209 -1.11397,1.144112 -1.18267,2.800212 -0.18593,4.482331 0.18831,0.317802 0.40051,0.763403 0.47158,0.990224 0.2466,0.787212 0.13792,2.003141 -0.24571,2.748708 -0.0481,0.09361 -0.0764,0.170194 -0.0627,0.170194 0.0136,0 0.17452,-0.06557 0.35746,-0.14572 0.88048,-0.385745 2.51789,-0.642355 3.64367,-0.571024 1.46612,0.09289 2.52696,0.504143 3.52767,1.367558 1.34066,1.156708 1.76187,3.091095 0.96805,4.445643 -0.61984,1.057676 -2.22969,1.629232 -3.28015,1.16457 l -0.27368,-0.121066 0.0504,0.19466 c 0.29369,1.134399 -0.0283,2.306982 -0.86256,3.141252 -0.58322,0.583221 -1.05153,0.802271 -1.80727,0.845366 -1.8526,0.105629 -3.18977,-1.251773 -2.90372,-2.947661 0.0871,-0.516456 0.32439,-0.918712 0.71801,-1.217232 l 0.25236,-0.191386 -0.25681,-0.106213 c -0.85092,-0.351944 -1.10783,-1.409758 -0.5037,-2.073929 0.19152,-0.210542 0.41715,-0.311462 0.7959,-0.355976 0.79229,-0.09312 1.34425,0.565991 1.04345,1.24601 -0.18529,0.418882 -0.60026,0.567236 -1.0241,0.366114 -0.33461,-0.158785 -0.45253,-0.59029 -0.21906,-0.801576 0.0681,-0.06161 0.12377,-0.0815 0.12377,-0.04419 0,0.0373 -0.0278,0.08504 -0.0619,0.106078 -0.0341,0.02104 -0.0619,0.133438 -0.0619,0.24978 0,0.266686 0.22373,0.431149 0.57401,0.421965 0.36429,-0.0095 0.56379,-0.234627 0.56379,-0.636085 0,-0.50265 -0.35232,-0.78166 -0.92685,-0.734015 -0.81052,0.06722 -1.21619,0.966175 -0.7437,1.647982 0.27719,0.399987 0.46358,0.468702 1.30636,0.481615 0.40846,0.0062 0.8359,0.04072 0.94985,0.07657 0.35364,0.111268 0.73934,0.447741 0.91367,0.797045 0.13856,0.277673 0.15822,0.38466 0.13642,0.742668 -0.0318,0.522146 -0.17406,0.822598 -0.49477,1.044844 -0.33579,0.232702 -0.91325,0.276423 -1.20784,0.09145 -0.22449,-0.140956 -0.43079,-0.421203 -0.35913,-0.487884 0.0263,-0.02445 0.0608,-0.0081 0.0766,0.03633 0.0426,0.11944 0.27416,0.32533 0.43794,0.389277 0.32677,0.127598 0.85363,0.01265 1.07792,-0.23518 0.30346,-0.335323 0.38598,-1.020953 0.17309,-1.438242 -0.37697,-0.738933 -1.40015,-0.977802 -2.17419,-0.507581 -0.57158,0.347229 -0.79827,0.782328 -0.79827,1.532142 0,0.63246 0.16918,1.056971 0.58827,1.476051 0.96005,0.96006 2.317,1.011097 3.38831,0.127434 0.32103,-0.264798 0.44225,-0.421183 0.66118,-0.852951 0.24607,-0.485295 0.2705,-0.5762 0.29754,-1.107242 0.0448,-0.880323 -0.0524,-1.27561 -0.52335,-2.125765 -0.13053,-0.235684 -0.17656,-0.412709 -0.19309,-0.742667 -0.0197,-0.39265 -0.002,-0.470512 0.18508,-0.831409 0.14979,-0.28845 0.29151,-0.45901 0.51421,-0.618889 0.27747,-0.199197 0.35285,-0.222553 0.77362,-0.239689 0.39976,-0.01628 0.50583,0.0027 0.7445,0.132885 0.52137,0.284485 0.71666,0.964433 0.40773,1.419654 -0.0822,0.121118 -0.1379,0.231749 -0.1238,0.245847 0.0202,0.02019 -0.21278,0.01106 -0.26547,-0.01041 -0.007,-0.0028 0.0538,-0.07167 0.13515,-0.152964 0.36533,-0.36533 0.20137,-1.028984 -0.31611,-1.279491 -0.49912,-0.241618 -1.08085,-0.05736 -1.48284,0.469683 -0.14379,0.188504 -0.1746,0.299039 -0.19851,0.712013 -0.0271,0.467776 -0.0197,0.502303 0.17153,0.800274 0.2376,0.370271 0.57355,0.650237 0.93202,0.776713 0.59616,0.210339 1.53589,0.04593 2.10667,-0.368574 0.3097,-0.224907 0.71127,-0.782024 0.84785,-1.176263 0.23034,-0.664835 0.1374,-1.575515 -0.23894,-2.341221 -0.23236,-0.472786 -0.29604,-0.558737 -0.77532,-1.046529 -0.9298,-0.946313 -2.16424,-1.408228 -3.76817,-1.410026 -1.74884,-0.0019 -2.90394,0.350917 -4.14656,1.266758 -0.99209,0.731189 -1.85042,1.983422 -2.29085,3.342174 -0.26603,0.82072 -0.30289,1.123098 -0.30173,2.475575 8.6e-4,1.196794 0.0146,1.358454 0.1722,2.042337 0.4857,2.108488 1.31179,3.782092 2.61191,5.291501 0.42421,0.492517 1.54596,1.591549 2.43875,2.389398 0.11914,0.106466 0.41337,0.377184 0.65386,0.6016 0.24049,0.224415 0.51741,0.471076 0.61537,0.548135 0.16518,0.129928 0.17464,0.131233 0.1302,0.01792 -0.0264,-0.06721 -0.10425,-0.345003 -0.17312,-0.617313 -0.16225,-0.64157 -0.13306,-1.539817 0.0694,-2.135169 0.48162,-1.416319 1.91086,-2.469288 3.38928,-2.496992 0.28649,-0.0053 0.5359,0.01889 0.57273,0.05573 0.0458,0.04572 -0.0875,0.067 -0.44559,0.07114 -1.64184,0.01893 -3.17101,1.321803 -3.39854,2.895573 -0.17992,1.244446 0.27448,2.533481 1.25723,3.566573 1.81626,1.909255 3.10176,3.592019 3.767,4.931105 l 0.34786,0.700228 0.14072,-0.6687 c 0.18787,-0.892756 0.28136,-1.180388 0.60961,-1.875533 1.16828,-2.474112 3.40459,-4.949325 6.04862,-6.694786 1.08378,-0.715457 2.70031,-2.177613 2.59533,-2.347479 -0.0279,-0.04509 -0.02,-0.05841 0.02,-0.03374 0.0363,0.02245 0.15291,-0.0689 0.2591,-0.202985 0.25225,-0.318498 0.62234,-0.857374 0.62234,-0.906176 0,-0.02109 0.0534,-0.113333 0.11864,-0.204972 0.18807,-0.264105 0.55127,-1.191942 0.68608,-1.752641 0.32328,-1.344578 0.17341,-2.795415 -0.384,-3.717113 -1.58172,-2.615475 -5.24534,-3.114946 -7.12097,-0.970822 -0.96084,1.09838 -1.01739,2.641926 -0.12803,3.494083 0.57674,0.55261 1.30875,0.712461 1.9422,0.424124 0.64473,-0.293474 1.02864,-1.034556 0.84513,-1.631402 -0.0484,-0.157432 -0.11888,-0.271109 -0.16211,-0.261496 -0.0421,0.0094 -0.0578,-0.01329 -0.0349,-0.05032 0.0229,-0.03703 -0.01,-0.125111 -0.0728,-0.195742 -0.3697,-0.415107 -1.246,-0.393298 -1.52863,0.03804 -0.11238,0.171522 -0.13762,0.563981 -0.0402,0.624233 0.0806,0.04979 0.0799,0.154721 -8.5e-4,0.154721 -0.12203,0 -0.26484,-0.409235 -0.22216,-0.636671 0.0872,-0.465163 0.45505,-0.729027 1.02744,-0.737144 0.68552,-0.0097 1.26443,0.460072 1.36451,1.107314 0.17266,1.116721 -0.70124,2.061282 -1.90711,2.061282 -0.14759,0 -0.55968,-0.09748 -0.91576,-0.216616 -0.91132,-0.304894 -1.30936,-0.275603 -1.7576,0.129353 -0.3052,0.275723 -0.43594,0.557685 -0.43223,0.932114 0.004,0.378258 0.14747,0.669074 0.45146,0.913456 0.21296,0.171198 0.28142,0.191193 0.65466,0.191193 0.35592,0 0.44834,-0.02407 0.63261,-0.164594 0.3752,-0.286181 0.44384,-0.886125 0.13461,-1.176631 -0.22292,-0.209429 -0.78321,-0.208254 -0.95346,0.0021 -0.13276,0.163965 -0.15698,0.502184 -0.044,0.615126 0.0413,0.04126 0.0468,0.07427 0.0124,0.07427 -0.12625,0 -0.21042,-0.155395 -0.21042,-0.388471 0,-0.501322 0.55481,-0.779906 1.08562,-0.545108 0.69335,0.306707 0.6568,1.357324 -0.0586,1.682194 -0.65995,0.299718 -1.45771,0.02861 -1.80398,-0.613029 l -0.15667,-0.290307 0.0281,0.516823 c 0.0358,0.657479 0.27086,1.17204 0.7198,1.575676 0.47671,0.428614 0.80876,0.565045 1.37558,0.56522 0.32735,1.12e-4 0.45812,0.0202 0.4145,0.06371 -0.0351,0.03498 -0.2781,0.06271 -0.54012,0.06165 -0.40061,-0.0017 -0.53384,-0.03069 -0.83762,-0.18287 -1.01424,-0.508059 -1.55886,-1.775396 -1.25438,-2.918933 0.2443,-0.91753 0.80542,-1.437084 1.58075,-1.463667 0.31855,-0.0109 0.35505,-0.02492 0.30623,-0.117255 -0.0305,-0.05767 -0.083,-0.121931 -0.1168,-0.142797 -0.12833,-0.07931 -0.44492,-0.843986 -0.49185,-1.188004 -0.2512,-1.84123 1.3048,-3.627141 3.49262,-4.008663 0.54635,-0.09528 1.25824,-0.354326 1.81893,-0.661886 1.18577,-0.650449 2.03782,-1.76155 2.16981,-2.829493 0.21712,-1.756912 -1.06654,-3.22548 -2.81937,-3.22548 -0.58726,0 -0.95515,0.104131 -1.41496,0.400495 -0.78642,0.50687 -1.2298,1.294166 -1.22091,2.167897 0.007,0.697613 0.43149,1.301698 1.15806,1.648423 0.64422,0.30743 1.27178,0.204692 1.7915,-0.293294 0.36892,-0.353487 0.52622,-0.695861 0.52798,-1.149178 9.1e-4,-0.302834 -0.0266,-0.38779 -0.20267,-0.618536 -0.28912,-0.379069 -0.62101,-0.55864 -0.97186,-0.525834 -0.15318,0.01432 -0.33421,0.04729 -0.40228,0.07327 -0.11577,0.04417 -0.11719,0.04021 -0.0219,-0.06128 0.10972,-0.116804 0.57359,-0.194663 0.80851,-0.135703 0.0793,0.0199 0.2772,0.124295 0.43978,0.231983 0.9706,0.6429 0.71027,2.133076 -0.48377,2.769283 -0.27073,0.144243 -0.37916,0.164572 -0.86645,0.162438 -0.47618,-0.0021 -0.60729,-0.02679 -0.90362,-0.170212 -0.38745,-0.187533 -0.872,-0.640208 -1.0473,-0.978417 -0.46142,-0.890215 -0.17671,-2.138916 0.68659,-3.011438 0.84739,-0.856428 2.07239,-1.149731 3.21981,-0.770916 0.76695,0.253208 1.47078,0.844184 1.83963,1.544658 l 0.20338,0.386244 0.22876,-0.09407 c 0.68299,-0.280852 1.23189,-0.899171 1.59117,-1.792425 0.43486,-1.081115 0.0501,-2.484816 -0.84265,-3.074175 -0.18376,-0.121307 -0.39676,-0.240032 -0.47335,-0.263835 -0.20386,-0.06336 -0.17574,-0.18123 0.0309,-0.129708 0.95372,0.237745 1.68648,1.341011 1.68648,2.539235 0,0.416443 -0.2437,1.203001 -0.49594,1.600659 -0.42587,0.67139 -1.16723,1.274618 -1.56908,1.276721 -0.0948,5.51e-4 -0.10803,0.03109 -0.0737,0.170799 0.10814,0.440168 0.11049,1.26418 0.005,1.704688 -0.26923,1.122881 -1.13002,2.202659 -2.26855,2.845684 -0.48364,0.273149 -0.49765,0.28714 -0.32589,0.325338 1.17426,0.261161 2.16957,0.83898 2.93352,1.703044 0.69907,0.79068 0.99308,1.057101 1.35246,1.225597 0.30115,0.141186 0.43082,0.163851 0.93744,0.163851 0.51896,0 0.63383,-0.02118 0.97905,-0.180578 0.9898,-0.456998 1.46997,-1.58159 1.06654,-2.49794 -0.35895,-0.815318 -1.49302,-1.321762 -2.17411,-0.970898 -0.56555,0.291345 -0.85751,0.681875 -0.86034,1.150828 -0.003,0.497207 0.36694,0.981989 0.84036,1.101198 0.37154,0.09356 0.6263,0.0222 0.90084,-0.252338 0.19777,-0.197778 0.23788,-0.280237 0.23788,-0.489093 0,-0.169035 0.0226,-0.237253 0.069,-0.208547 0.13034,0.08056 0.0218,0.577359 -0.17026,0.779429 -0.25672,0.270074 -0.46856,0.361135 -0.8395,0.360873 -0.33629,-2.24e-4 -0.60331,-0.116021 -0.90649,-0.393072 -0.55877,-0.510606 -0.48674,-1.445894 0.15593,-2.025103 0.32661,-0.294343 1.07518,-0.651402 1.69346,-0.807752 0.68635,-0.173565 1.63799,-0.141541 2.19489,0.07386 1.12701,0.435917 1.9222,1.334957 1.99621,2.2569 0.0384,0.477832 -0.073,0.555239 -0.12822,0.08912 -0.0421,-0.35557 -0.32404,-0.918351 -0.6192,-1.236057 -0.51658,-0.556015 -1.26038,-0.952082 -1.98438,-1.056654 -0.41863,-0.06046 -1.2366,0.01595 -1.62491,0.151787 l -0.23884,0.08355 0.39603,0.111953 c 0.32134,0.09085 0.4678,0.179099 0.77668,0.468044 0.22901,0.214223 0.45341,0.499659 0.56325,0.716453 0.15936,0.314493 0.18214,0.424698 0.179,0.865796 -0.004,0.44781 -0.0275,0.55243 -0.21282,0.917627 -0.35239,0.694257 -0.99568,1.16325 -1.83248,1.33597 -0.4845,0.100006 -1.14564,6.79e-4 -1.64051,-0.246401 l -0.34742,-0.173473 0.11721,0.377646 c 0.0644,0.207705 0.14199,0.670071 0.17225,1.027479 0.1753,2.070181 -0.41236,3.657469 -2.02496,5.469415 -0.17935,0.201529 -0.31503,0.37748 -0.3015,0.391011 0.0281,0.02814 1.95099,-1.002835 2.81249,-1.507979 0.92521,-0.54249 2.44881,-1.529778 3.40696,-2.207686 0.48857,-0.345664 0.94866,-0.670258 1.02244,-0.721315 1.01709,-0.703973 2.0564,-1.768889 2.83883,-2.908781 1.4845,-2.162718 2.26988,-4.499357 2.52743,-7.519507 0.18791,-2.203522 -0.0854,-3.803952 -0.95481,-5.590061 -1.19975,-2.464909 -3.17868,-4.200329 -6.04368,-5.300011 -1.90153,-0.729864 -4.95232,-0.972631 -6.97431,-0.554978 -0.96951,0.200256 -1.99137,0.625281 -2.79558,1.255078 -0.55104,0.43155 -1.13581,1.3487 -1.29408,1.653599 -0.0665,0.128111 -1.65299,2.452858 -1.67199,2.396554 -0.0482,-0.143089 1.83562,-3.236895 2.16379,-3.705181 0.83514,-1.191695 2.86234,-2.078234 4.98458,-2.318931 0.8777,-0.09955 3.03473,-0.04649 3.79281,0.0933 0.68889,0.127028 1.87795,0.460006 2.46491,0.690255 0.94884,0.372206 2.16978,1.048177 3.0432,1.684866 0.68557,0.499748 1.83386,1.679942 2.27564,2.338864 1.01142,1.508513 1.69082,3.246718 1.94032,4.964161 0.11287,0.776993 0.12688,1.084749 0.0977,2.144931 -0.0704,2.554141 -0.56379,4.494836 -1.6866,6.633688 -0.2535,0.482909 -0.46092,0.89523 -0.46092,0.91627 0,0.09208 1.62525,-1.494041 2.07328,-2.023366 1.50304,-1.775745 2.50396,-3.720731 2.91609,-5.666523 0.22386,-1.056943 0.29885,-2.094084 0.21699,-3.000934 -0.085,-0.941929 -0.26754,-1.89073 -0.49383,-2.567282 -0.19356,-0.578685 -0.15976,-0.744828 0.0515,-0.253559 0.58334,1.355993 0.84191,2.780172 0.78907,4.345896 -0.0547,1.620754 -0.357,2.816031 -1.09731,4.338922 -0.73508,1.512127 -1.48179,2.515318 -2.96779,3.987183 -0.42698,0.422926 -0.72064,0.746104 -0.65256,0.718175 0.38181,-0.156647 1.18062,-0.356947 1.63123,-0.409025 0.89128,-0.103014 2.15489,0.144648 2.79382,0.547583 0.15318,0.0966 0.30636,0.192303 0.34039,0.212683 0.0381,0.02279 0.0644,-0.09794 0.0683,-0.313714 0.007,-0.385346 0.11111,-0.633865 0.40623,-0.969984 0.26118,-0.297469 0.48026,-0.399952 0.85502,-0.399952 0.79419,0 1.28186,0.597538 1.02869,1.260449 -0.15514,0.406233 -0.45357,0.578614 -0.94121,0.543663 -0.1854,-0.01329 -0.45845,-0.287096 -0.45381,-0.455072 l 0.004,-0.142206 0.0547,0.135643 c 0.1456,0.361463 0.69604,0.455086 0.99449,0.169151 0.3503,-0.335611 0.31555,-0.863707 -0.0738,-1.121361 -0.3696,-0.244588 -0.75972,-0.258444 -1.09712,-0.03897 -0.34199,0.222454 -0.56684,0.642107 -0.56684,1.057975 0,0.305887 0.0527,0.412064 0.5531,1.114084 0.28351,0.397748 0.41912,0.692772 0.59083,1.285257 0.24997,0.862625 0.19241,1.756521 -0.15777,2.450252 -0.212,0.419951 -0.3059,0.500835 -0.28758,0.247726 0.007,-0.100021 0.0327,-0.169848 0.0566,-0.155166 0.11001,0.06768 0.30671,-0.826432 0.30807,-1.40031 0.002,-0.698755 -0.11668,-1.203677 -0.43394,-1.851444 -0.57808,-1.180288 -1.82403,-1.858248 -3.41982,-1.86083 -1.06386,-0.0017 -1.87565,0.262967 -2.9457,0.960462 -0.59472,0.387658 -1.90991,1.656744 -1.83782,1.773392 0.0244,0.03939 0.015,0.05205 -0.0217,0.02937 -0.0354,-0.02191 -0.0997,0.0026 -0.14278,0.05457 -0.069,0.08322 -0.046,0.08863 0.19412,0.04574 0.48897,-0.08732 1.5425,-0.05009 1.94347,0.06868 1.08627,0.321776 1.81543,1.144837 2.01789,2.277738 0.20873,1.167981 -0.42168,2.42972 -1.44603,2.894188 -0.21264,0.09641 -0.45614,0.190579 -0.54113,0.209262 -0.0849,0.01867 0.0445,0.0216 0.28778,0.0064 0.47077,-0.02928 1.15338,-0.232612 1.50261,-0.447613 0.71258,-0.438691 1.23964,-1.290176 1.29066,-2.085121 0.0185,-0.2885 0.0532,-0.448589 0.092,-0.424595 0.0923,0.05703 0.008,0.946274 -0.11959,1.266425 -0.45895,1.14878 -1.63958,1.848745 -3.11828,1.848745 -1.34392,0 -2.34502,-0.485759 -2.72481,-1.322134 -0.17574,-0.387035 -0.16112,-1.091254 0.0312,-1.504392 0.29549,-0.634657 0.87401,-1.010592 1.55518,-1.010592 0.50846,0 1.10667,0.314229 1.29628,0.680904 0.12261,0.237098 0.11847,0.824414 -0.007,1.090269 -0.11149,0.234942 -0.38326,0.456955 -0.55893,0.456599 -0.0812,-2.25e-4 -0.0548,-0.03646 0.0911,-0.12543 0.26687,-0.162705 0.47036,-0.607449 0.42674,-0.932662 -0.0368,-0.274581 -0.21849,-0.552121 -0.48615,-0.742712 -0.28997,-0.206474 -0.94658,-0.23729 -1.30978,-0.06147 -0.60034,0.290616 -0.81661,0.660957 -0.81661,1.398339 0,0.419695 0.0234,0.532816 0.15383,0.742664 0.20696,0.333045 0.40301,0.5044 0.78728,0.688081 1.12974,0.540025 2.44238,0.07725 3.02026,-1.064785 0.17226,-0.340401 0.18519,-0.413511 0.18519,-1.046742 0,-0.616038 -0.016,-0.713148 -0.16826,-1.021168 -0.18817,-0.380664 -0.45914,-0.701948 -0.5465,-0.647958 -0.0316,0.01953 -0.0433,-0.0013 -0.026,-0.0465 0.0563,-0.14675 -0.61228,-0.526086 -1.13043,-0.641362 -0.6033,-0.13422 -1.57608,-0.09242 -2.03036,0.08726 -0.46363,0.183362 -1.28933,0.678157 -2.04423,1.224985 -1.29497,0.938036 -2.95711,1.986089 -4.90007,3.089706 -0.55333,0.314294 -0.92693,0.562928 -0.9033,0.601155 0.0239,0.03871 0.0105,0.04681 -0.0329,0.01999 -0.11401,-0.07046 -2.40243,1.233972 -3.88999,2.217351 -1.0513,0.694983 -2.86781,2.355557 -2.76274,2.525571 0.0237,0.03841 0.0136,0.05023 -0.0235,0.02733 -0.17718,-0.109503 -1.36163,1.548857 -1.929,2.700809 -0.35151,0.713653 -0.80972,1.885595 -0.80972,2.070936 0,0.02191 0.15572,-0.195507 0.34606,-0.483161 1.58135,-2.389978 4.08253,-4.112437 6.63982,-4.57258 1.02754,-0.184886 2.13095,-0.222276 2.99462,-0.101464 0.79697,0.111481 1.55035,0.310948 2.10508,0.557349 0.42532,0.188915 0.43729,0.190514 0.36117,0.04828 -0.0999,-0.186702 -0.25475,-1.119433 -0.25245,-1.520848 0.009,-1.568311 0.9963,-2.792711 2.50066,-3.10112 1.00717,-0.206478 1.92958,0.07071 2.60894,0.783989 0.48808,0.512439 0.70709,1.085236 0.70426,1.841856 -0.002,0.55168 -0.0905,0.898158 -0.33458,1.309817 l -0.20633,0.348066 0.41323,0.02959 c 0.46466,0.03324 1.08606,0.278936 1.31096,0.518322 0.0767,0.08166 0.15704,0.148481 0.17848,0.148481 0.0214,0 0.0457,-0.118362 0.0537,-0.263028 0.0354,-0.633242 0.31844,-1.216924 0.81534,-1.681723 0.56345,-0.52704 1.42123,-0.791558 2.1375,-0.659151 0.58148,0.107496 0.50383,0.159288 -0.23882,0.159288 -0.62274,0 -0.72916,0.01689 -1.04756,0.1661 -0.4963,0.232608 -0.82564,0.5155 -1.06487,0.914687 -0.30986,0.517053 -0.36769,0.861639 -0.31686,1.887952 0.0413,0.833488 0.0362,0.896477 -0.0959,1.17743 -0.27597,0.587104 -0.81172,0.956949 -1.38619,0.956949 -0.48417,0 -1.15638,-0.351624 -1.27657,-0.667763 -0.10112,-0.26596 -0.16243,-0.04761 -0.10485,0.373398 0.11445,0.836947 0.74347,1.672874 1.54282,2.050304 0.63427,0.299488 0.92791,0.368729 1.5715,0.370553 0.44098,0.0013 0.62021,-0.02658 0.86053,-0.133514 0.35104,-0.156236 0.42975,-0.139458 0.17967,0.03828 -0.25477,0.181091 -0.60665,0.2606 -1.15505,0.260985 -1.64004,0.0013 -3.00429,-1.10307 -3.18999,-2.582012 -0.16773,-1.335891 0.66207,-2.332207 1.57975,-1.896739 0.45205,0.214514 0.59653,0.690331 0.31924,1.051386 -0.17445,0.227157 -0.23624,0.269772 -0.38893,0.268236 -0.11487,-0.0013 -0.11361,-0.0069 0.0174,-0.07963 0.0776,-0.04311 0.11943,-0.102288 0.0928,-0.131508 -0.0266,-0.0292 -0.0155,-0.03426 0.0248,-0.01121 0.10015,0.05739 0.26727,-0.196604 0.26727,-0.406181 0,-0.0999 -0.0722,-0.251781 -0.17388,-0.365516 -0.35468,-0.396951 -1.07767,-0.271432 -1.28424,0.222956 -0.29405,0.703764 0.23037,1.406251 1.05509,1.413343 0.70789,0.006 1.33135,-0.63194 1.33135,-1.362452 0,-0.260855 -0.16571,-0.702789 -0.33648,-0.897332 -0.0803,-0.09146 -0.29504,-0.244635 -0.47721,-0.340388 -0.47947,-0.252004 -1.10974,-0.269988 -1.93167,-0.05512 -0.3356,0.08774 -0.73142,0.159522 -0.87959,0.159522 -0.55999,0 -1.3147,-0.425415 -1.5451,-0.870947 -0.38422,-0.743 -0.16194,-1.731984 0.4703,-2.092593 0.49633,-0.283079 1.16989,-0.218532 1.44964,0.138923 0.18968,0.242382 0.14652,0.2949 -0.0669,0.08144 -0.19007,-0.190078 -0.48002,-0.258291 -0.87041,-0.20478 -0.57321,0.07857 -0.90009,0.488873 -0.91049,1.142888 -0.005,0.326153 0.0257,0.475873 0.1475,0.714809 0.40389,0.792326 1.50623,1.00554 2.33504,0.451635 0.87816,-0.586896 1.08079,-1.978087 0.42692,-2.931229 -0.79498,-1.158843 -2.59049,-1.355716 -3.68211,-0.403734 -0.87679,0.764644 -1.15821,1.658092 -0.90429,2.871013 0.15516,0.741181 0.3751,1.128759 1.02526,1.806687 1.00969,1.052816 1.45616,1.719242 1.74651,2.606946 0.21199,0.648085 0.28903,1.161144 0.28809,1.918559 -8.5e-4,0.809032 -0.0805,1.332083 -0.30755,2.020784 -0.63813,1.93641 -2.26416,3.428405 -4.23959,3.890131 -2.02709,0.473801 -4.14965,-0.03578 -5.41586,-1.300189 -0.79362,-0.792505 -1.10715,-1.524462 -1.15764,-2.702562 -0.0294,-0.686329 -0.0176,-0.804236 0.13302,-1.33061 0.1735,-0.606205 0.43813,-1.145597 0.69838,-1.423501 0.0928,-0.09908 0.13576,-0.19576 0.10741,-0.241644 -0.0292,-0.04727 -0.0218,-0.06072 0.0195,-0.03519 0.0368,0.02271 0.19346,-0.06835 0.3483,-0.202353 0.58541,-0.506671 1.48091,-0.819839 2.34919,-0.821536 0.88708,-0.0017 1.51235,0.22284 2.10058,0.754469 0.83343,0.753242 1.06233,1.942345 0.57767,3.000984 -0.19205,0.419488 -0.68567,0.922836 -1.06406,1.085031 -0.39275,0.168354 -0.49084,0.148392 -0.1482,-0.03018 0.35289,-0.18389 0.74407,-0.604227 0.96134,-1.032964 0.13019,-0.256937 0.1739,-0.447312 0.19743,-0.859972 0.0648,-1.136911 -0.41465,-1.902005 -1.47091,-2.347113 -0.50207,-0.211572 -1.31269,-0.243464 -1.90778,-0.07506 -0.49532,0.140172 -1.02447,0.418476 -0.96834,0.509294 0.0196,0.03175 -0.003,0.04304 -0.0493,0.02513 -0.21002,-0.08059 -0.94263,0.927785 -1.14878,1.58121 -0.25264,0.800777 -0.17408,2.007197 0.18003,2.764582 0.45075,0.964115 1.62254,1.802565 2.93481,2.099961 0.69291,0.157034 1.8167,0.145175 2.45447,-0.02589 1.82197,-0.488725 3.07775,-1.690475 3.71718,-3.557249 0.17578,-0.513206 0.19769,-0.659332 0.22102,-1.474095 0.0311,-1.085693 -0.0729,-1.59562 -0.50096,-2.457152 -0.58488,-1.177069 -1.40112,-1.984043 -2.63876,-2.608801 -1.50242,-0.75842 -3.85757,-0.791889 -5.75756,-0.08181 -1.23285,0.460749 -2.19621,1.083074 -3.1307,2.022434 -0.66584,0.669304 -1.32511,1.569529 -1.77725,2.426847 -0.25124,0.476361 -0.58215,1.368449 -0.77173,2.080487 -0.15496,0.582028 -0.16888,0.726337 -0.16295,1.688529 0.005,0.702003 0.0392,1.206573 0.10479,1.516277 0.94848,4.478687 1.43161,7.404075 1.83465,11.10906 0.19294,1.77357 0.36045,3.907642 0.45665,5.817563 l 0.0717,1.42345 0.8355,0.03927 c 0.45952,0.0216 1.36465,0.05785 2.01139,0.08056 0.64674,0.0227 1.53794,0.06811 1.98044,0.100934 0.44251,0.03277 0.99951,0.07415 1.23779,0.09192 0.23826,0.01776 0.61424,0.05959 0.8355,0.09306 2.11907,0.320168 2.23336,0.349525 2.34904,0.603234 0.0578,0.126666 0.0471,0.39936 -0.0308,0.790995 -0.0268,0.13497 -0.26785,0.224022 -1.14243,0.422137 -1.72369,0.390453 -8.60128,0.673885 -13.36802,0.550899 z M 157.62246,52.072024 c -0.43224,-0.271173 -0.46272,-0.810098 -0.0647,-1.14496 0.31304,-0.26341 0.66984,-0.198065 0.86014,0.157527 0.0867,0.161914 0.0334,0.149368 -0.15167,-0.03578 -0.21924,-0.219229 -0.47782,-0.205677 -0.68091,0.03569 -0.47205,0.561008 0.22544,1.197392 0.87699,0.80014 0.5868,-0.357778 0.59775,-1.212541 0.0197,-1.537424 -0.43458,-0.244246 -0.96811,-0.151313 -1.35553,0.236118 -0.24769,0.247683 -0.30797,0.216635 -0.1196,-0.0616 0.37654,-0.556187 1.33412,-0.668922 1.76182,-0.207417 0.26311,0.283895 0.33771,0.445758 0.33771,0.732729 0,0.775386 -0.89564,1.394023 -1.4839,1.024963 z m 43.99128,-0.132483 c -0.6126,-0.240376 -0.42602,-1.231111 0.23185,-1.231111 0.26696,0 0.45168,0.143315 0.44501,0.345261 -0.004,0.106248 -0.01,0.104512 -0.0584,-0.0163 -0.12599,-0.312681 -0.52637,-0.32268 -0.74293,-0.01855 -0.22997,0.322969 -0.0933,0.692853 0.29574,0.800268 0.18343,0.05064 0.26694,0.03769 0.49745,-0.07728 0.64563,-0.321971 0.68009,-1.154625 0.061,-1.472503 -0.40767,-0.209302 -0.88042,-0.126768 -1.24713,0.217721 -0.26804,0.251814 -0.28159,0.129644 -0.0157,-0.142552 0.49107,-0.502906 1.25339,-0.49277 1.66424,0.02212 0.23599,0.295765 0.2821,0.679354 0.11973,0.99607 -0.27608,0.5385 -0.76902,0.765858 -1.2507,0.576858 z m -24.78651,-0.23687 c -0.55074,-0.134075 -1.05846,-0.608993 -1.38197,-1.292672 -0.21319,-0.450563 -0.22466,-0.507248 -0.22118,-1.094073 0.005,-0.704002 0.11313,-1.082964 0.48957,-1.702641 0.25774,-0.424289 0.55646,-0.618195 0.95236,-0.618195 0.36046,0 0.52075,0.08173 0.77941,0.397389 0.19475,0.237666 0.23233,0.330816 0.23616,0.585444 0.005,0.352757 -0.11823,0.578479 -0.39497,0.721587 -0.14193,0.0734 -0.23079,0.08268 -0.35528,0.03709 l -0.16599,-0.06076 0.20589,-0.0049 c 0.32057,-0.0076 0.56772,-0.29009 0.56772,-0.648874 0,-0.248452 -0.032,-0.315583 -0.2679,-0.561761 -0.24153,-0.252084 -0.29585,-0.279585 -0.55224,-0.279585 -0.35017,0 -0.62762,0.208761 -0.8023,0.603667 -0.32646,0.738022 0.39144,1.754114 1.24847,1.767042 0.53891,0.0081 1.11165,-0.408818 1.29265,-0.941027 0.10023,-0.294714 0.0892,-0.95835 -0.0204,-1.220517 -0.0506,-0.121044 -0.17824,-0.329026 -0.2837,-0.46218 -0.22374,-0.282488 -0.11095,-0.339628 0.14192,-0.07191 0.37313,0.395036 0.5731,1.069462 0.47414,1.599126 -0.0607,0.324865 -0.32698,0.805752 -0.4964,0.896422 -0.0654,0.03498 -0.10203,0.09072 -0.0816,0.123897 0.0205,0.03319 0.0143,0.05516 -0.0137,0.04887 -0.028,-0.0063 -0.17634,0.0481 -0.32952,0.120883 -0.37251,0.176996 -0.9196,0.180277 -1.27619,0.0076 -0.4554,-0.220455 -0.93866,-0.876172 -0.95519,-1.296051 -0.0112,-0.28307 -0.24369,0.639956 -0.24394,0.968232 -3.3e-4,0.415014 0.19387,1.034076 0.44174,1.4083 0.25463,0.384416 0.73578,0.762907 1.08003,0.849594 0.14918,0.03756 0.25601,0.09293 0.2374,0.12303 -0.0375,0.06079 -0.0427,0.06075 -0.30502,-0.0029 z M 193.47535,30.4349 c -0.41026,-0.09684 -0.80554,-0.261273 -0.98634,-0.410306 -0.27731,-0.228585 -0.39613,-0.675487 -0.26178,-0.984647 0.27533,-0.633613 0.92805,-0.852113 1.35709,-0.454286 0.15807,0.146577 0.25127,0.519461 0.10764,0.430692 -0.0341,-0.02104 -0.0619,-0.08799 -0.0619,-0.148782 0,-0.196644 -0.23568,-0.346873 -0.53395,-0.340362 -0.30365,0.0066 -0.48878,0.139238 -0.67366,0.482552 -0.31395,0.58295 0.36364,1.221685 1.08883,1.026412 0.46278,-0.124614 0.8917,-0.640174 0.92573,-1.112729 0.0266,-0.370388 0.004,-0.46535 -0.18534,-0.749992 -0.49803,-0.751905 -1.50115,-0.800684 -2.25714,-0.109758 -0.38753,0.354185 -0.44624,0.321514 -0.14113,-0.07853 0.12668,-0.166074 0.34091,-0.337315 0.56608,-0.452474 1.24311,-0.635749 2.64626,0.478861 2.15833,1.714491 -0.15514,0.392833 -0.44636,0.721404 -0.78175,0.881997 l -0.29817,0.142766 0.29817,0.02445 c 0.4104,0.03365 0.99164,-0.06167 1.28835,-0.211303 0.65562,-0.330617 1.147,-0.954177 1.24365,-1.578198 0.0539,-0.347804 0.17495,-0.269687 0.12678,0.08179 -0.0913,0.665707 -0.61214,1.317716 -1.31579,1.646993 -0.34606,0.161944 -0.49481,0.193971 -0.97418,0.20978 -0.31116,0.01025 -0.62146,0.0055 -0.68954,-0.01056 z m -20.65252,-1.681574 c -0.31904,-0.340453 -0.54557,-0.999472 -0.54353,-1.581215 9.1e-4,-0.382039 0.16144,-0.997325 0.38025,-1.461358 0.14395,-0.30529 0.32796,-0.541328 0.73236,-0.939434 0.47129,-0.463974 0.61017,-0.561494 1.09031,-0.765623 0.62163,-0.26428 1.01992,-0.329473 1.34914,-0.220821 1.20019,0.3961 1.07553,2.353643 -0.14989,2.353643 -0.3191,0 -0.61916,-0.175327 -0.61671,-0.360353 9.2e-4,-0.08276 0.0238,-0.07471 0.11181,0.03972 0.15078,0.195986 0.5401,0.24508 0.83475,0.105262 0.42366,-0.20104 0.59464,-0.849899 0.35912,-1.362796 -0.14839,-0.323145 -0.2917,-0.443994 -0.61185,-0.515926 -0.5902,-0.132607 -1.18847,0.185283 -1.4465,0.768585 -0.51065,1.154419 0.2087,2.393877 1.3961,2.40549 0.52011,0.0051 0.87732,-0.134935 1.26876,-0.497338 0.47309,-0.438008 0.69227,-0.891751 0.74481,-1.541922 l 0.04,-0.495112 0.0826,0.278501 c 0.0656,0.221008 0.068,0.365385 0.0121,0.699383 -0.15921,0.950285 -0.73978,1.607577 -1.60568,1.817868 -1.21524,0.295132 -2.25133,-0.471884 -2.34447,-1.735614 -0.0312,-0.423607 0.0255,-0.693754 0.26061,-1.239914 0.0499,-0.115925 0.0473,-0.115925 -0.15438,0 -0.37039,0.212867 -0.95071,0.848952 -1.15586,1.266923 -0.23313,0.474993 -0.24991,0.529663 -0.32177,1.048022 -0.0912,0.657768 0.0406,1.361705 0.33034,1.763835 0.0736,0.102116 0.15431,0.22048 0.17943,0.263028 0.0828,0.140061 -0.0591,0.08068 -0.22173,-0.09283 z"
       id="path4496"
       inkscape:connector-curvature="0"
       sodipodi:nodetypes="ccsccccccsscccscccccccccccccccccsccccccccsscccsccccccccccccccccscccscsccccccsccccccsscccccccccccccccccccsccscccccsscccscssccccsssccccssssccsccccscssccsccccsccscccsccccsccsccscccsccsccccccccccccsscccccsccccscccccsccscscccssscsscccccccssccsscccscccsccccccccccscccsscccscsccccccccccccscccscscsssccccccccccccsccccccccccccccscccscccccscccccscccccccccccccscccsccscssccccccscscscsccsccccsscscccccccccccccsccsccsscccccccscscscscsccccsccccccccsccscscsccccccsccccsccccccccccccccccscsscaccssscscccssccsccscsccccccsccccccccsccccccscccccscccccccccsccsccccccsscccscccccscccccccscscscccscsccsscscsccccscccccccsccccccscscscccscccccccssscccccsccccccccccscccccccccsccccsccccscssccscccccscccccccscsccscccscccccccccccccsccsscccccscsccccccccccsccccscccccsccsccsccscccscccccccccccccccscccccccsccccsccccccccc" />
    <rect
       style="fill:none;fill-opacity:1;stroke:#000000;stroke-width:0.11769415;stroke-miterlimit:4;stroke-dasharray:none;stroke-opacity:1"
       id="rect4485-9"
       width="39.882305"
       height="39.882305"
       x="5.5365062"
       y="90.613914" />
    <path
       style="fill:none;fill-rule:evenodd;stroke:#000000;stroke-width:0.26798862;stroke-linecap:butt;stroke-linejoin:miter;stroke-miterlimit:4;stroke-dasharray:0.8039659, 0.8039659;stroke-dashoffset:0;stroke-opacity:1"
       d="M 8.8792577,122.92381 H 42.07606"
       id="path4604"
       inkscape:connector-curvature="0"
       sodipodi:nodetypes="cc" />
    <text
       xml:space="preserve"
       style="font-style:normal;font-variant:normal;font-weight:normal;font-stretch:normal;font-size:3.52777767px;line-height:125%;font-family:Calibri;-inkscape-font-specification:Calibri;letter-spacing:0px;word-spacing:0px;fill:#000000;fill-opacity:1;stroke:none;stroke-width:0.26458332px;stroke-linecap:butt;stroke-linejoin:miter;stroke-opacity:1"
       x="8.7861719"
       y="127.7885"
       id="text4608"><tspan
         sodipodi:role="line"
         id="tspan4606"
         x="8.7861719"
         y="127.7885"
         style="stroke-width:0.26458332px">Unterschrift des Gastes</tspan></text>
    <flowRoot
       xml:space="preserve"
       id="flowRoot4800"
       style="font-style:normal;font-variant:normal;font-weight:normal;font-stretch:normal;font-size:18.66666603px;line-height:125%;font-family:Calibri;-inkscape-font-specification:Calibri;text-align:center;letter-spacing:0px;word-spacing:0px;text-anchor:middle;fill:#000000;fill-opacity:1;stroke:none;stroke-width:1px;stroke-linecap:butt;stroke-linejoin:miter;stroke-opacity:1"
       transform="matrix(0.26458333,0,0,0.26458333,-0.58216267,0)"><flowRegion
         id="flowRegion4802"
         style="text-align:center;text-anchor:middle"><rect
           id="rect4804"
           width="125.71429"
           height="65.714287"
           x="35.714287"
           y="366.09113"
           style="text-align:center;text-anchor:middle" /></flowRegion><flowPara
         id="flowPara4806">quak01</flowPara></flowRoot>    <flowRoot
       xml:space="preserve"
       id="flowRoot4800-8"
       style="font-style:normal;font-variant:normal;font-weight:normal;font-stretch:normal;font-size:18.66666603px;line-height:125%;font-family:Calibri;-inkscape-font-specification:Calibri;text-align:center;letter-spacing:0px;word-spacing:0px;text-anchor:middle;fill:#000000;fill-opacity:1;stroke:none;stroke-width:1px;stroke-linecap:butt;stroke-linejoin:miter;stroke-opacity:1"
       transform="matrix(0.26458333,0,0,0.26458333,39.300143,0)"><flowRegion
         id="flowRegion4802-3"
         style="text-align:center;text-anchor:middle"><rect
           id="rect4804-6"
           width="125.71429"
           height="65.714287"
           x="35.714287"
           y="366.09113"
           style="text-align:center;text-anchor:middle" /></flowRegion><flowPara
         id="flowPara4806-2">quak06</flowPara></flowRoot>    <flowRoot
       xml:space="preserve"
       id="flowRoot4800-3"
       style="font-style:normal;font-variant:normal;font-weight:normal;font-stretch:normal;font-size:18.66666603px;line-height:125%;font-family:Calibri;-inkscape-font-specification:Calibri;text-align:center;letter-spacing:0px;word-spacing:0px;text-anchor:middle;fill:#000000;fill-opacity:1;stroke:none;stroke-width:1px;stroke-linecap:butt;stroke-linejoin:miter;stroke-opacity:1"
       transform="matrix(0.26458333,0,0,0.26458333,79.182448,0)"><flowRegion
         id="flowRegion4802-6"
         style="text-align:center;text-anchor:middle"><rect
           id="rect4804-8"
           width="125.71429"
           height="65.714287"
           x="35.714287"
           y="366.09113"
           style="text-align:center;text-anchor:middle" /></flowRegion><flowPara
         id="flowPara4806-0">quak07</flowPara></flowRoot>    <flowRoot
       xml:space="preserve"
       id="flowRoot4800-84"
       style="font-style:normal;font-variant:normal;font-weight:normal;font-stretch:normal;font-size:18.66666603px;line-height:125%;font-family:Calibri;-inkscape-font-specification:Calibri;text-align:center;letter-spacing:0px;word-spacing:0px;text-anchor:middle;fill:#000000;fill-opacity:1;stroke:none;stroke-width:1px;stroke-linecap:butt;stroke-linejoin:miter;stroke-opacity:1"
       transform="matrix(0.26458333,0,0,0.26458333,119.06476,0)"><flowRegion
         id="flowRegion4802-1"
         style="text-align:center;text-anchor:middle"><rect
           id="rect4804-7"
           width="125.71429"
           height="65.714287"
           x="35.714287"
           y="366.09113"
           style="text-align:center;text-anchor:middle" /></flowRegion><flowPara
         id="flowPara4806-7">quak08</flowPara></flowRoot>    <flowRoot
       xml:space="preserve"
       id="flowRoot4800-848"
       style="font-style:normal;font-variant:normal;font-weight:normal;font-stretch:normal;font-size:18.66666603px;line-height:125%;font-family:Calibri;-inkscape-font-specification:Calibri;text-align:center;letter-spacing:0px;word-spacing:0px;text-anchor:middle;fill:#000000;fill-opacity:1;stroke:none;stroke-width:1px;stroke-linecap:butt;stroke-linejoin:miter;stroke-opacity:1"
       transform="matrix(0.26458333,0,0,0.26458333,158.94707,0)"><flowRegion
         id="flowRegion4802-9"
         style="text-align:center;text-anchor:middle"><rect
           id="rect4804-78"
           width="125.71429"
           height="65.714287"
           x="35.714287"
           y="366.09113"
           style="text-align:center;text-anchor:middle" /></flowRegion><flowPara
         id="flowPara4806-4">quak09</flowPara></flowRoot>    <flowRoot
       xml:space="preserve"
       id="flowRoot4800-1"
       style="font-style:normal;font-variant:normal;font-weight:normal;font-stretch:normal;font-size:18.66666603px;line-height:125%;font-family:Calibri;-inkscape-font-specification:Calibri;text-align:center;letter-spacing:0px;word-spacing:0px;text-anchor:middle;fill:#000000;fill-opacity:1;stroke:none;stroke-width:1px;stroke-linecap:butt;stroke-linejoin:miter;stroke-opacity:1"
       transform="matrix(0.26458333,0,0,0.26458333,39.300143,40.56543)"><flowRegion
         id="flowRegion4802-8"
         style="text-align:center;text-anchor:middle"><rect
           id="rect4804-0"
           width="125.71429"
           height="65.714287"
           x="35.714287"
           y="366.09113"
           style="text-align:center;text-anchor:middle" /></flowRegion><flowPara
         id="flowPara4806-6">quak02</flowPara></flowRoot>    <flowRoot
       xml:space="preserve"
       id="flowRoot4800-31"
       style="font-style:normal;font-variant:normal;font-weight:normal;font-stretch:normal;font-size:18.66666603px;line-height:125%;font-family:Calibri;-inkscape-font-specification:Calibri;text-align:center;letter-spacing:0px;word-spacing:0px;text-anchor:middle;fill:#000000;fill-opacity:1;stroke:none;stroke-width:1px;stroke-linecap:butt;stroke-linejoin:miter;stroke-opacity:1"
       transform="matrix(0.26458333,0,0,0.26458333,79.182456,80.230703)"><flowRegion
         id="flowRegion4802-5"
         style="text-align:center;text-anchor:middle"><rect
           id="rect4804-00"
           width="125.71429"
           height="65.714287"
           x="35.714287"
           y="366.09113"
           style="text-align:center;text-anchor:middle" /></flowRegion><flowPara
         id="flowPara4806-3">quak03</flowPara></flowRoot>    <flowRoot
       xml:space="preserve"
       id="flowRoot4800-34"
       style="font-style:normal;font-variant:normal;font-weight:normal;font-stretch:normal;font-size:18.66666603px;line-height:125%;font-family:Calibri;-inkscape-font-specification:Calibri;text-align:center;letter-spacing:0px;word-spacing:0px;text-anchor:middle;fill:#000000;fill-opacity:1;stroke:none;stroke-width:1px;stroke-linecap:butt;stroke-linejoin:miter;stroke-opacity:1"
       transform="matrix(0.26458333,0,0,0.26458333,119.06477,120.12987)"><flowRegion
         id="flowRegion4802-38"
         style="text-align:center;text-anchor:middle"><rect
           id="rect4804-9"
           width="125.71429"
           height="65.714287"
           x="35.714287"
           y="366.09113"
           style="text-align:center;text-anchor:middle" /></flowRegion><flowPara
         id="flowPara4806-40">quak04</flowPara></flowRoot>    <flowRoot
       xml:space="preserve"
       id="flowRoot4800-9"
       style="font-style:normal;font-variant:normal;font-weight:normal;font-stretch:normal;font-size:18.66666603px;line-height:125%;font-family:Calibri;-inkscape-font-specification:Calibri;text-align:center;letter-spacing:0px;word-spacing:0px;text-anchor:middle;fill:#000000;fill-opacity:1;stroke:none;stroke-width:1px;stroke-linecap:butt;stroke-linejoin:miter;stroke-opacity:1"
       transform="matrix(0.26458333,0,0,0.26458333,158.94707,160.02182)"><flowRegion
         id="flowRegion4802-53"
         style="text-align:center;text-anchor:middle"><rect
           id="rect4804-62"
           width="125.71429"
           height="65.714287"
           x="35.714287"
           y="366.09113"
           style="text-align:center;text-anchor:middle" /></flowRegion><flowPara
         id="flowPara4806-9">quak05</flowPara></flowRoot>    <flowRoot
       xml:space="preserve"
       id="flowRoot4800-84-1"
       style="font-style:normal;font-variant:normal;font-weight:normal;font-stretch:normal;font-size:18.66666603px;line-height:125%;font-family:Calibri;-inkscape-font-specification:Calibri;text-align:center;letter-spacing:0px;word-spacing:0px;text-anchor:middle;fill:#000000;fill-opacity:1;stroke:none;stroke-width:1px;stroke-linecap:butt;stroke-linejoin:miter;stroke-opacity:1"
       transform="matrix(0.26458333,0,0,0.26458333,158.94705,40.575295)"><flowRegion
         id="flowRegion4802-1-4"
         style="text-align:center;text-anchor:middle"><rect
           id="rect4804-7-0"
           width="125.71429"
           height="65.714287"
           x="35.714287"
           y="366.09113"
           style="text-align:center;text-anchor:middle" /></flowRegion><flowPara
         id="flowPara4806-7-3">quak13</flowPara></flowRoot>    <flowRoot
       xml:space="preserve"
       id="flowRoot4800-8-8"
       style="font-style:normal;font-variant:normal;font-weight:normal;font-stretch:normal;font-size:18.66666603px;line-height:125%;font-family:Calibri;-inkscape-font-specification:Calibri;text-align:center;letter-spacing:0px;word-spacing:0px;text-anchor:middle;fill:#000000;fill-opacity:1;stroke:none;stroke-width:1px;stroke-linecap:butt;stroke-linejoin:miter;stroke-opacity:1"
       transform="matrix(0.26458333,0,0,0.26458333,-0.5994988,40.575295)"><flowRegion
         id="flowRegion4802-3-5"
         style="text-align:center;text-anchor:middle"><rect
           id="rect4804-6-8"
           width="125.71429"
           height="65.714287"
           x="35.714287"
           y="366.09113"
           style="text-align:center;text-anchor:middle" /></flowRegion><flowPara
         id="flowPara4806-2-16">quak10</flowPara></flowRoot>    <flowRoot
       xml:space="preserve"
       id="flowRoot4800-84-3"
       style="font-style:normal;font-variant:normal;font-weight:normal;font-stretch:normal;font-size:18.66666603px;line-height:125%;font-family:Calibri;-inkscape-font-specification:Calibri;text-align:center;letter-spacing:0px;word-spacing:0px;text-anchor:middle;fill:#000000;fill-opacity:1;stroke:none;stroke-width:1px;stroke-linecap:butt;stroke-linejoin:miter;stroke-opacity:1"
       transform="matrix(0.26458333,0,0,0.26458333,79.182448,40.575295)"><flowRegion
         id="flowRegion4802-1-2"
         style="text-align:center;text-anchor:middle"><rect
           id="rect4804-7-4"
           width="125.71429"
           height="65.714287"
           x="35.714287"
           y="366.09113"
           style="text-align:center;text-anchor:middle" /></flowRegion><flowPara
         id="flowPara4806-7-8">quak11</flowPara></flowRoot>    <flowRoot
       xml:space="preserve"
       id="flowRoot4800-848-2"
       style="font-style:normal;font-variant:normal;font-weight:normal;font-stretch:normal;font-size:18.66666603px;line-height:125%;font-family:Calibri;-inkscape-font-specification:Calibri;text-align:center;letter-spacing:0px;word-spacing:0px;text-anchor:middle;fill:#000000;fill-opacity:1;stroke:none;stroke-width:1px;stroke-linecap:butt;stroke-linejoin:miter;stroke-opacity:1"
       transform="matrix(0.26458333,0,0,0.26458333,119.06476,40.575295)"><flowRegion
         id="flowRegion4802-9-4"
         style="text-align:center;text-anchor:middle"><rect
           id="rect4804-78-7"
           width="125.71429"
           height="65.714287"
           x="35.714287"
           y="366.09113"
           style="text-align:center;text-anchor:middle" /></flowRegion><flowPara
         id="flowPara4806-4-5">quak12</flowPara></flowRoot>    <flowRoot
       xml:space="preserve"
       id="flowRoot4800-1-1"
       style="font-style:normal;font-variant:normal;font-weight:normal;font-stretch:normal;font-size:18.66666603px;line-height:125%;font-family:Calibri;-inkscape-font-specification:Calibri;text-align:center;letter-spacing:0px;word-spacing:0px;text-anchor:middle;fill:#000000;fill-opacity:1;stroke:none;stroke-width:1px;stroke-linecap:butt;stroke-linejoin:miter;stroke-opacity:1"
       transform="matrix(0.26458333,0,0,0.26458333,39.294153,80.176142)"><flowRegion
         id="flowRegion4802-8-3"
         style="text-align:center;text-anchor:middle"><rect
           id="rect4804-0-2"
           width="125.71429"
           height="65.714287"
           x="35.714287"
           y="366.09113"
           style="text-align:center;text-anchor:middle" /></flowRegion><flowPara
         id="flowPara4806-6-1">quak15</flowPara></flowRoot>    <flowRoot
       xml:space="preserve"
       id="flowRoot4800-84-1-6"
       style="font-style:normal;font-variant:normal;font-weight:normal;font-stretch:normal;font-size:18.66666603px;line-height:125%;font-family:Calibri;-inkscape-font-specification:Calibri;text-align:center;letter-spacing:0px;word-spacing:0px;text-anchor:middle;fill:#000000;fill-opacity:1;stroke:none;stroke-width:1px;stroke-linecap:butt;stroke-linejoin:miter;stroke-opacity:1"
       transform="matrix(0.26458333,0,0,0.26458333,158.94107,80.186012)"><flowRegion
         id="flowRegion4802-1-4-3"
         style="text-align:center;text-anchor:middle"><rect
           id="rect4804-7-0-4"
           width="125.71429"
           height="65.714287"
           x="35.714287"
           y="366.09113"
           style="text-align:center;text-anchor:middle" /></flowRegion><flowPara
         id="flowPara4806-7-3-4">quak17</flowPara></flowRoot>    <flowRoot
       xml:space="preserve"
       id="flowRoot4800-8-8-0"
       style="font-style:normal;font-variant:normal;font-weight:normal;font-stretch:normal;font-size:18.66666603px;line-height:125%;font-family:Calibri;-inkscape-font-specification:Calibri;text-align:center;letter-spacing:0px;word-spacing:0px;text-anchor:middle;fill:#000000;fill-opacity:1;stroke:none;stroke-width:1px;stroke-linecap:butt;stroke-linejoin:miter;stroke-opacity:1"
       transform="matrix(0.26458333,0,0,0.26458333,-0.60548699,80.186012)"><flowRegion
         id="flowRegion4802-3-5-5"
         style="text-align:center;text-anchor:middle"><rect
           id="rect4804-6-8-8"
           width="125.71429"
           height="65.714287"
           x="35.714287"
           y="366.09113"
           style="text-align:center;text-anchor:middle" /></flowRegion><flowPara
         id="flowPara4806-2-16-4">quak14</flowPara></flowRoot>    <flowRoot
       xml:space="preserve"
       id="flowRoot4800-848-2-9"
       style="font-style:normal;font-variant:normal;font-weight:normal;font-stretch:normal;font-size:18.66666603px;line-height:125%;font-family:Calibri;-inkscape-font-specification:Calibri;text-align:center;letter-spacing:0px;word-spacing:0px;text-anchor:middle;fill:#000000;fill-opacity:1;stroke:none;stroke-width:1px;stroke-linecap:butt;stroke-linejoin:miter;stroke-opacity:1"
       transform="matrix(0.26458333,0,0,0.26458333,119.05878,80.186012)"><flowRegion
         id="flowRegion4802-9-4-5"
         style="text-align:center;text-anchor:middle"><rect
           id="rect4804-78-7-7"
           width="125.71429"
           height="65.714287"
           x="35.714287"
           y="366.09113"
           style="text-align:center;text-anchor:middle" /></flowRegion><flowPara
         id="flowPara4806-4-5-1">quak16</flowPara></flowRoot>    <flowRoot
       xml:space="preserve"
       id="flowRoot4800-1-0"
       style="font-style:normal;font-variant:normal;font-weight:normal;font-stretch:normal;font-size:18.66666603px;line-height:125%;font-family:Calibri;-inkscape-font-specification:Calibri;text-align:center;letter-spacing:0px;word-spacing:0px;text-anchor:middle;fill:#000000;fill-opacity:1;stroke:none;stroke-width:1px;stroke-linecap:butt;stroke-linejoin:miter;stroke-opacity:1"
       transform="matrix(0.26458333,0,0,0.26458333,39.303772,120.13561)"><flowRegion
         id="flowRegion4802-8-2"
         style="text-align:center;text-anchor:middle"><rect
           id="rect4804-0-5"
           width="125.71429"
           height="65.714287"
           x="35.714287"
           y="366.09113"
           style="text-align:center;text-anchor:middle" /></flowRegion><flowPara
         id="flowPara4806-6-3">quak19</flowPara></flowRoot>    <flowRoot
       xml:space="preserve"
       id="flowRoot4800-84-1-2"
       style="font-style:normal;font-variant:normal;font-weight:normal;font-stretch:normal;font-size:18.66666603px;line-height:125%;font-family:Calibri;-inkscape-font-specification:Calibri;text-align:center;letter-spacing:0px;word-spacing:0px;text-anchor:middle;fill:#000000;fill-opacity:1;stroke:none;stroke-width:1px;stroke-linecap:butt;stroke-linejoin:miter;stroke-opacity:1"
       transform="matrix(0.26458333,0,0,0.26458333,158.94708,120.14547)"><flowRegion
         id="flowRegion4802-1-4-2"
         style="text-align:center;text-anchor:middle"><rect
           id="rect4804-7-0-0"
           width="125.71429"
           height="65.714287"
           x="35.714287"
           y="366.09113"
           style="text-align:center;text-anchor:middle" /></flowRegion><flowPara
         id="flowPara4806-7-3-8">quak21</flowPara></flowRoot>    <flowRoot
       xml:space="preserve"
       id="flowRoot4800-8-8-01"
       style="font-style:normal;font-variant:normal;font-weight:normal;font-stretch:normal;font-size:18.66666603px;line-height:125%;font-family:Calibri;-inkscape-font-specification:Calibri;text-align:center;letter-spacing:0px;word-spacing:0px;text-anchor:middle;fill:#000000;fill-opacity:1;stroke:none;stroke-width:1px;stroke-linecap:butt;stroke-linejoin:miter;stroke-opacity:1"
       transform="matrix(0.26458333,0,0,0.26458333,-0.58216267,120.14547)"><flowRegion
         id="flowRegion4802-3-5-3"
         style="text-align:center;text-anchor:middle"><rect
           id="rect4804-6-8-9"
           width="125.71429"
           height="65.714287"
           x="35.714287"
           y="366.09113"
           style="text-align:center;text-anchor:middle" /></flowRegion><flowPara
         id="flowPara4806-2-16-41">quak18</flowPara></flowRoot>    <flowRoot
       xml:space="preserve"
       id="flowRoot4800-84-3-7"
       style="font-style:normal;font-variant:normal;font-weight:normal;font-stretch:normal;font-size:18.66666603px;line-height:125%;font-family:Calibri;-inkscape-font-specification:Calibri;text-align:center;letter-spacing:0px;word-spacing:0px;text-anchor:middle;fill:#000000;fill-opacity:1;stroke:none;stroke-width:1px;stroke-linecap:butt;stroke-linejoin:miter;stroke-opacity:1"
       transform="matrix(0.26458333,0,0,0.26458333,79.182463,120.14547)"><flowRegion
         id="flowRegion4802-1-2-5"
         style="text-align:center;text-anchor:middle"><rect
           id="rect4804-7-4-9"
           width="125.71429"
           height="65.714287"
           x="35.714287"
           y="366.09113"
           style="text-align:center;text-anchor:middle" /></flowRegion><flowPara
         id="flowPara4806-7-8-2">quak20</flowPara></flowRoot>    <flowRoot
       xml:space="preserve"
       id="flowRoot4800-1-5"
       style="font-style:normal;font-variant:normal;font-weight:normal;font-stretch:normal;font-size:18.66666603px;line-height:125%;font-family:Calibri;-inkscape-font-specification:Calibri;text-align:center;letter-spacing:0px;word-spacing:0px;text-anchor:middle;fill:#000000;fill-opacity:1;stroke:none;stroke-width:1px;stroke-linecap:butt;stroke-linejoin:miter;stroke-opacity:1"
       transform="matrix(0.26458333,0,0,0.26458333,39.308475,160.0122)"><flowRegion
         id="flowRegion4802-8-5"
         style="text-align:center;text-anchor:middle"><rect
           id="rect4804-0-3"
           width="125.71429"
           height="65.714287"
           x="35.714287"
           y="366.09113"
           style="text-align:center;text-anchor:middle" /></flowRegion><flowPara
         id="flowPara4806-6-12">quak23</flowPara></flowRoot>    <flowRoot
       xml:space="preserve"
       id="flowRoot4800-8-8-09"
       style="font-style:normal;font-variant:normal;font-weight:normal;font-stretch:normal;font-size:18.66666603px;line-height:125%;font-family:Calibri;-inkscape-font-specification:Calibri;text-align:center;letter-spacing:0px;word-spacing:0px;text-anchor:middle;fill:#000000;fill-opacity:1;stroke:none;stroke-width:1px;stroke-linecap:butt;stroke-linejoin:miter;stroke-opacity:1"
       transform="matrix(0.26458333,0,0,0.26458333,-0.59116532,160.02207)"><flowRegion
         id="flowRegion4802-3-5-56"
         style="text-align:center;text-anchor:middle"><rect
           id="rect4804-6-8-82"
           width="125.71429"
           height="65.714287"
           x="35.714287"
           y="366.09113"
           style="text-align:center;text-anchor:middle" /></flowRegion><flowPara
         id="flowPara4806-2-16-43">quak22</flowPara></flowRoot>    <flowRoot
       xml:space="preserve"
       id="flowRoot4800-84-3-2"
       style="font-style:normal;font-variant:normal;font-weight:normal;font-stretch:normal;font-size:18.66666603px;line-height:125%;font-family:Calibri;-inkscape-font-specification:Calibri;text-align:center;letter-spacing:0px;word-spacing:0px;text-anchor:middle;fill:#000000;fill-opacity:1;stroke:none;stroke-width:1px;stroke-linecap:butt;stroke-linejoin:miter;stroke-opacity:1"
       transform="matrix(0.26458333,0,0,0.26458333,79.190784,160.02207)"><flowRegion
         id="flowRegion4802-1-2-4"
         style="text-align:center;text-anchor:middle"><rect
           id="rect4804-7-4-0"
           width="125.71429"
           height="65.714287"
           x="35.714287"
           y="366.09113"
           style="text-align:center;text-anchor:middle" /></flowRegion><flowPara
         id="flowPara4806-7-8-1">quak24</flowPara></flowRoot>    <flowRoot
       xml:space="preserve"
       id="flowRoot4800-848-2-6"
       style="font-style:normal;font-variant:normal;font-weight:normal;font-stretch:normal;font-size:18.66666603px;line-height:125%;font-family:Calibri;-inkscape-font-specification:Calibri;text-align:center;letter-spacing:0px;word-spacing:0px;text-anchor:middle;fill:#000000;fill-opacity:1;stroke:none;stroke-width:1px;stroke-linecap:butt;stroke-linejoin:miter;stroke-opacity:1"
       transform="matrix(0.26458333,0,0,0.26458333,119.06477,160.02207)"><flowRegion
         id="flowRegion4802-9-4-8"
         style="text-align:center;text-anchor:middle"><rect
           id="rect4804-78-7-4"
           width="125.71429"
           height="65.714287"
           x="35.714287"
           y="366.09113"
           style="text-align:center;text-anchor:middle" /></flowRegion><flowPara
         id="flowPara4806-4-5-5">quak25</flowPara></flowRoot>  </g>
</svg>
